<svg width="20" height="20" viewBox="0 0 20 20" fill="none" xmlns="http://www.w3.org/2000/svg">
<path d="M7.19687 3.125H3.03571C2.72787 3.125 2.43264 3.24572 2.21497 3.46061C1.99729 3.67549 1.875 3.96694 1.875 4.27083V15.7292C1.875 16.0331 1.99729 16.3245 2.21497 16.5394C2.43264 16.7543 2.72787 16.875 3.03571 16.875H16.9643C17.2721 16.875 17.5674 16.7543 17.785 16.5394C18.0027 16.3245 18.125 16.0331 18.125 15.7292V6.5625C18.125 6.25861 18.0027 5.96716 17.785 5.75227C17.5674 5.53739 17.2721 5.41667 16.9643 5.41667H10L8.02098 3.46302C7.913 3.35579 7.78459 3.27071 7.64315 3.2127C7.50171 3.15469 7.35004 3.12488 7.19687 3.125Z" fill="#4DAEFF"/>
</svg>
