<svg width="32" height="32" viewBox="0 0 32 32" xmlns="http://www.w3.org/2000/svg">
<path d="M8.90387 8.00062C9.11169 7.99259 9.3149 8.06296 9.47324 8.1977L16.0533 14.7868L22.6335 8.20668C22.7918 8.07192 22.995 8.00155 23.2029 8.00958C23.4115 8.01764 23.6095 8.10415 23.7572 8.25181C23.9048 8.39947 23.9913 8.59742 23.9994 8.80609C24.0074 9.01392 23.937 9.21714 23.8023 9.37547L17.2222 15.9556L23.8023 22.5357C23.937 22.694 24.0074 22.8973 23.9994 23.1051C23.9913 23.3138 23.9048 23.5117 23.7572 23.6594C23.6095 23.807 23.4115 23.8935 23.2029 23.9016C22.995 23.9096 22.7918 23.8393 22.6335 23.7045L16.0534 17.1244L9.46231 23.7062L9.45889 23.7102C9.38456 23.797 9.2931 23.8675 9.19023 23.9172C9.08736 23.967 8.97532 23.995 8.86113 23.9994C8.74695 24.0038 8.63308 23.9846 8.52668 23.9429C8.42028 23.9012 8.32365 23.838 8.24285 23.7572C8.16204 23.6763 8.09882 23.5797 8.05713 23.4733C8.01545 23.3669 7.99621 23.2531 8.00062 23.1389C8.00503 23.0247 8.033 22.9126 8.08276 22.8098C8.13253 22.7069 8.20315 22.6156 8.28995 22.5413L14.8846 15.9557L8.30448 9.36653C8.16971 9.20819 8.09934 9.00496 8.10736 8.79713C8.11542 8.58846 8.20193 8.39051 8.34959 8.24285C8.49726 8.09518 8.6952 8.00868 8.90387 8.00062Z"/>
</svg>
