<svg width="18" height="18" viewBox="0 0 18 18" xmlns="http://www.w3.org/2000/svg">
<path fill-rule="evenodd" clip-rule="evenodd" d="M7.84706 8.63795L13.6328 2.85226L14.3856 3.60509L13.3385 4.65295L15.1706 6.48503L14.4177 7.23846L12.5849 5.40568L11.2435 6.74713L12.8142 8.31786L12.0613 9.07125L10.4907 7.49988L8.60033 9.39025L8.69356 9.53191C9.16915 10.2546 9.35988 11.128 9.22888 11.9831C9.09788 12.8383 8.65445 13.6145 7.98433 14.1617C7.31422 14.7089 6.46502 14.9882 5.60093 14.9456C4.73684 14.9029 3.91924 14.5414 3.30623 13.931C2.69192 13.3189 2.3271 12.5004 2.28267 11.6344C2.23824 10.7684 2.51738 9.91677 3.06584 9.24509C3.6143 8.57341 4.3929 8.12964 5.25032 8.00003C6.10773 7.87042 6.98271 8.06423 7.7052 8.54379L7.84706 8.63795ZM6.73614 9.1654C6.43524 9.04321 6.1129 8.98258 5.78817 8.98709C5.46344 8.99161 5.1429 9.06118 4.84552 9.19169C4.54847 9.32206 4.28053 9.51059 4.05751 9.74616C3.61539 10.2043 3.37077 10.8177 3.3763 11.4545C3.38184 12.0915 3.63737 12.7009 4.08786 13.1514C4.53835 13.6019 5.14776 13.8574 5.78483 13.863C6.4219 13.8685 7.03565 13.6236 7.4939 13.181L7.64623 13.0339L7.6404 13.0281C7.80781 12.8392 7.94506 12.625 8.04685 12.393C8.17736 12.0956 8.24694 11.7751 8.25145 11.4504C8.25597 11.1256 8.19534 10.8033 8.07314 10.5024C7.95095 10.2015 7.76968 9.92815 7.54003 9.69851C7.31039 9.46887 7.03704 9.28759 6.73614 9.1654Z"/>
</svg>
