<svg xmlns="http://www.w3.org/2000/svg" width="32" height="32" viewBox="0 0 32 32">
  <path d="M7.673 5c-.178 0-.35.07-.476.196A.665.665 0 007 5.668v21.364c0 .177.07.347.197.473a.676.676 0 001.15-.473V5.668a.665.665 0 00-.197-.472A.676.676 0 007.673 5zM25.184 17.685h-14.69a.8.8 0 00-.8.8v5.077a.8.8 0 00.8.8h14.69c.178 0 .35-.07.476-.196a.665.665 0 00.197-.472v-5.341a.665.665 0 00-.197-.472.676.676 0 00-.476-.196zm-.674 5.341H11.04v-4.005h13.47v4.005zM20.47 14.347V9.006a.665.665 0 00-.198-.472.676.676 0 00-.476-.196h-9.302a.8.8 0 00-.8.8v5.077a.8.8 0 00.8.8h9.302c.178 0 .35-.07.476-.196a.665.665 0 00.197-.472zm-1.348-.668h-8.081V9.674h8.081v4.005z"/>
</svg>
