<svg xmlns="http://www.w3.org/2000/svg" width="71" height="70" fill="none" viewBox="0 0 71 70">
  <g clip-path="url(#clip0)">
    <path fill="#77889A" d="M42.5 57.167a1.166 1.166 0 100-2.334H27.333a1.166 1.166 0 100 2.334H42.5zM48.334 59.5H21.5a1.166 1.166 0 100 2.333h26.834a1.166 1.166 0 100-2.333zM8.667 3.5A4.671 4.671 0 004 8.167a4.671 4.671 0 004.667 4.666 4.671 4.671 0 004.666-4.666A4.671 4.671 0 008.667 3.5zm0 7a2.336 2.336 0 01-2.334-2.333 2.336 2.336 0 012.334-2.334A2.336 2.336 0 0111 8.167 2.336 2.336 0 018.667 10.5zM19.167 3.5A4.671 4.671 0 0014.5 8.167a4.671 4.671 0 004.667 4.666 4.671 4.671 0 004.666-4.666A4.671 4.671 0 0019.167 3.5zm0 7a2.336 2.336 0 01-2.334-2.333 2.336 2.336 0 012.334-2.334A2.336 2.336 0 0121.5 8.167a2.336 2.336 0 01-2.333 2.333zM29.667 3.5A4.671 4.671 0 0025 8.167a4.671 4.671 0 004.667 4.666 4.671 4.671 0 004.666-4.666A4.671 4.671 0 0029.667 3.5zm0 7a2.336 2.336 0 01-2.334-2.333 2.336 2.336 0 012.334-2.334A2.336 2.336 0 0132 8.167a2.336 2.336 0 01-2.333 2.333z"/>
    <path fill="#77889A" d="M.5 0v70h70V0H.5zm2.333 2.333h65.334V14H2.833V2.333zm65.334 65.334H2.833V16.333h65.334v51.334z"/>
    <path fill="#77889A" d="M35.5 51.333c8.363 0 15.167-6.804 15.167-15.166C50.667 27.804 43.863 21 35.5 21s-15.166 6.804-15.166 15.167c0 8.362 6.803 15.166 15.166 15.166zm0-28c7.076 0 12.834 5.758 12.834 12.834C48.334 43.242 42.575 49 35.5 49s-12.833-5.758-12.833-12.833c0-7.076 5.757-12.834 12.833-12.834z"/>
    <path fill="#77889A" d="M28.842 42.825a1.164 1.164 0 001.65 0l5.008-5.009 5.008 5.009a1.164 1.164 0 001.65 0 1.165 1.165 0 000-1.65l-5.008-5.008 5.008-5.009a1.166 1.166 0 10-1.65-1.65L35.5 34.517l-5.009-5.009a1.165 1.165 0 10-1.65 1.65l5.01 5.009-5.01 5.008a1.165 1.165 0 000 1.65z"/>
  </g>
  <defs>
    <clipPath id="clip0">
      <path fill="#fff" d="M0 0h70v70H0z" transform="translate(.5)"/>
    </clipPath>
  </defs>
</svg>
