<svg xmlns="http://www.w3.org/2000/svg" width="32" height="32" viewBox="0 0 32 32">
  <path d="M13.012 6.335H6.335v6.677h6.677V6.335zm1.335 7.512a.5.5 0 01-.5.5H5.5a.5.5 0 01-.5-.5V5.5a.5.5 0 01.5-.5h8.347a.5.5 0 01.5.5v8.347zM18.853 27.7a.5.5 0 01-.5-.5v-8.347a.5.5 0 01.5-.5H27.2a.5.5 0 01.5.5V27.2a.5.5 0 01-.5.5h-8.347zm.835-1.335h6.677v-6.677h-6.677v6.677zm2.17-16.024a.5.5 0 01.5.5v4.341a.5.5 0 01-.5.5h-.335a.5.5 0 01-.5-.5v-3.505h-3.505a.5.5 0 01-.5-.5v-.336a.5.5 0 01.5-.5h4.34zM10.842 22.36a.5.5 0 01-.5-.5v-4.341a.5.5 0 01.5-.5h.336a.5.5 0 01.5.5v3.505h3.505a.5.5 0 01.5.5v.336a.5.5 0 01-.5.5h-4.34z"/>
</svg>
