<svg xmlns="http://www.w3.org/2000/svg" width="32" height="32" fill="currentColor" viewBox="0 0 32 32">
  <path fill-rule="evenodd" d="M10.07 18.116a5.11 5.11 0 01.03.007l-.03-.007zm3.826 5.896zM26.482 5.9l-4 6H17.9v2.2h12v1.8H18a1.9 1.9 0 01-1.9-1.9V2.1h1.8v8h3.619l4-6H29.9v1.8h-3.418zM9.9 22.1h4.122l-.025-.12a5.113 5.113 0 00-3.977-3.977l-.12-.025V22.1zm-4.32 4.683a5.1 5.1 0 008.417-2.763l.025-.12H10A1.9 1.9 0 018.1 22v-4.021l-.12.024a5.1 5.1 0 00-2.4 8.78zm-.413-9.52A6.9 6.9 0 019 16.1a6.908 6.908 0 016.9 6.9 6.9 6.9 0 11-10.733-5.737zM24.1 18.1h1.8v11.8h-1.8V18.1zm4 4h1.8v7.8h-1.8v-7.8zm-6.2 7.8h-1.8v-3.8h1.8v3.8zM11.9 7a.9.9 0 11-1.8 0 .9.9 0 011.8 0zm-2 4a.9.9 0 11-1.8 0 .9.9 0 011.8 0zm-2-6a.9.9 0 11-1.8 0 .9.9 0 011.8 0zm-2 4a.9.9 0 11-1.8 0 .9.9 0 011.8 0zm-2 4a.9.9 0 11-1.8 0 .9.9 0 011.8 0z" clip-rule="evenodd"/>
</svg>
