<svg xmlns="http://www.w3.org/2000/svg" width="32" height="32" fill="currentColor" viewBox="0 0 32 32">
  <path fill-rule="evenodd" d="M9.68 7.367a9.9 9.9 0 018.165-2.089 9.9 9.9 0 017.86 7.86l.014.068.067.012A7.4 7.4 0 0124.484 27.9h-17a7.4 7.4 0 01-1.302-14.682l.067-.012.013-.067a9.9 9.9 0 013.419-5.772zm1.128 1.374A8.1 8.1 0 0115.994 6.9c.514 0 1.026.05 1.53.152a8.1 8.1 0 016.428 6.42l.247 1.282 1.282.228A5.6 5.6 0 0124.463 26.1H7.494a5.6 5.6 0 01-1.017-11.119l1.272-.227.247-1.283a8.1 8.1 0 012.812-4.73z" clip-rule="evenodd"/>
</svg>
