<svg xmlns="http://www.w3.org/2000/svg" width="32" height="32" viewBox="0 0 32 32">
  <path d="M12.004 8a3.996 3.996 0 1 1 7.992 0 3.996 3.996 0 0 1-7.992 0ZM16 6.004a1.996 1.996 0 1 0 0 3.992 1.996 1.996 0 0 0 0-3.992ZM22 9a3 3 0 1 1 5.999 0A3 3 0 0 1 22 9Zm3-1a1 1 0 1 0 0 2 1 1 0 0 0 0-2ZM7 6a3 3 0 1 0 0 6 3 3 0 0 0 0-6ZM6 9a1 1 0 1 1 2 0 1 1 0 0 1-2 0Zm2.536 5A3.98 3.98 0 0 0 8 16H4v5a3 3 0 0 0 4.192 2.754c.148.662.38 1.294.68 1.884A5 5 0 0 1 2 21v-5a2 2 0 0 1 2-2h4.536Zm14.592 11.638A5 5 0 0 0 30 21v-5a2 2 0 0 0-2-2h-4.536c.34.588.536 1.27.536 2h4v5a3 3 0 0 1-4.192 2.754 8.11 8.11 0 0 1-.68 1.884ZM12 13.998a2 2 0 0 0-2 2V22a6 6 0 1 0 12 0v-6a2 2 0 0 0-2-2h-8v-.002Zm0 2h8V22a4 4 0 1 1-8 0v-6.002Z"/>
</svg>
