<svg xmlns="http://www.w3.org/2000/svg" width="32" height="32" fill="currentColor" viewBox="0 0 32 32">
  <path fill-rule="evenodd" d="M8.364 19.818L4.546 16l3.818-3.818L12.182 16l-3.818 3.818zm-5.657-3.11a1 1 0 010-1.415l4.95-4.95a1 1 0 011.414 0l4.95 4.95a1 1 0 010 1.414l-4.95 4.95a1 1 0 01-1.414 0l-4.95-4.95zm13.435 10.889l-3.818-3.819 3.818-3.818 3.819 3.818-3.819 3.819zm-5.657-3.112a1 1 0 010-1.414l4.95-4.95a1 1 0 011.414 0l4.95 4.95a1 1 0 010 1.414l-4.95 4.95a1 1 0 01-1.414 0l-4.95-4.95zm1.839-16.263l3.818 3.818 3.819-3.818-3.819-3.819-3.818 3.819zm-1.839-.707a1 1 0 000 1.414l4.95 4.95a1 1 0 001.414 0l4.95-4.95a1 1 0 000-1.414l-4.95-4.95a1 1 0 00-1.414 0l-4.95 4.95zM23.92 19.818L20.102 16l3.818-3.818L27.74 16l-3.819 3.818zm-5.657-3.11a1 1 0 010-1.415l4.95-4.95a1 1 0 011.414 0l4.95 4.95a1 1 0 010 1.414l-4.95 4.95a1 1 0 01-1.414 0l-4.95-4.95z" clip-rule="evenodd"/>
</svg>
