<svg xmlns="http://www.w3.org/2000/svg" width="25" height="24" fill="none" viewBox="0 0 25 24">
  <path fill="#005ACD" d="M19.04 4.366a.75.75 0 1 0-1.073 1.05l.216.22H8.066c-.605 0-1.52.143-2.309.625-.831.506-1.51 1.387-1.51 2.741 0 1.352.677 2.239 1.505 2.753.788.49 1.702.644 2.314.644h8.935c.413 0 1.014.11 1.485.407.43.27.77.701.77 1.474s-.34 1.207-.772 1.48c-.471.3-1.072.412-1.483.412H6.821l.23-.235a.75.75 0 1 0-1.073-1.05l-1.493 1.527a.75.75 0 0 0 .008 1.057l1.493 1.479a.75.75 0 0 0 1.056-1.066l-.215-.212h10.174c.612 0 1.514-.153 2.288-.646.816-.518 1.466-1.405 1.466-2.746 0-1.342-.651-2.227-1.468-2.743-.775-.49-1.676-.638-2.286-.638H8.066c-.411 0-1.032-.112-1.523-.418-.451-.28-.797-.717-.797-1.479 0-.76.344-1.188.792-1.46.49-.299 1.11-.406 1.528-.406h10.137l-.228.226a.75.75 0 0 0 1.055 1.066l1.493-1.479a.75.75 0 0 0 .009-1.057l-1.493-1.526Z"/>
</svg>
