<svg xmlns="http://www.w3.org/2000/svg" width="32" height="33" viewBox="0 0 32 33">
  <path d="M12.7 8.3a1 1 0 1 0 0 2h6.6a1 1 0 1 0 0-2h-6.6Zm0 15.4a1 1 0 1 0 0 2h6.6a1 1 0 1 0 0-2h-6.6Z"/>
  <path fill-rule="evenodd" d="M5.55 5C4.615 5 4 5.799 4 6.6V12c0 .801.615 1.6 1.55 1.6H9.5v3.404a1 1 0 0 0 1 1l10 .005V20.4H5.55C4.615 20.4 4 21.199 4 22v5.4c0 .801.615 1.6 1.55 1.6h20.9c.935 0 1.55-.799 1.55-1.6V22c0-.801-.615-1.6-1.55-1.6H22.5v-3.39a1 1 0 0 0-1-1l-10-.005V13.6h14.95c.935 0 1.55-.799 1.55-1.6V6.6c0-.8-.614-1.6-1.55-1.6H5.55Zm4.962 6.6H26V7H6v4.6h4.512ZM6 27v-4.6h20V27H6Z" clip-rule="evenodd"/>
</svg>
