<svg width="20" height="20" viewBox="0 0 20 20" fill="none" xmlns="http://www.w3.org/2000/svg">
<path fill-rule="evenodd" clip-rule="evenodd" d="M11.4816 1.25H5.41667H5.125C4.02043 1.25 3.125 2.14543 3.125 3.25V3.4375V16.5625V16.75C3.125 17.8546 4.02043 18.75 5.125 18.75H5.41667H14.5833H14.875C15.9796 18.75 16.875 17.8546 16.875 16.75L16.875 16.5625V6.39828C16.8749 6.10822 16.7542 5.83007 16.5393 5.625L12.2917 1.57047C12.0768 1.36534 11.7854 1.25006 11.4816 1.25ZM11.7188 2.89062V5.07812C11.7188 5.36821 11.8395 5.6464 12.0544 5.85152C12.2692 6.05664 12.5607 6.17188 12.8646 6.17188H15.1562L11.7188 2.89062ZM15.7292 11.0938H4.27083V12.1875H6.5625V14.375H4.27083V15.4688H6.5625V17.6562H7.70833V15.4688H15.7292V14.375H7.70833V12.1875H15.7292V11.0938Z" fill="#4A9F77"/>
</svg>
