<svg xmlns="http://www.w3.org/2000/svg" width="32" height="32" fill="currentColor" viewBox="0 0 32 32">
  <path fill-rule="evenodd" d="M28.285 14.047c.338 0 .622.227.689.53l.015.135.011 1.444a.643.643 0 01-.117.376l-.09.103-5.101 4.859v4.055c0 .179-.076.35-.206.474l-.108.083-2.276 1.445a.723.723 0 01-.72.036.676.676 0 01-.356-.446l-.017-.145v-4.78l-5.862-5.581a.657.657 0 01-.19-.342l-.014-.131v-1.445a.68.68 0 01.562-.656l.141-.014h13.64zm-12.757 7.438l1.857 1.767v3.744c0 .154.02.303.048.45l.047.22H5.96c-1.01 0-1.842-.803-1.948-1.836L4 25.605v-3.09c0-.51.357-.936.822-1.016l.159-.014h10.547zm-3.81-8.242c-.248.441-.401.94-.401 1.473v1.445c0 .836.356 1.654.975 2.243l1.072 1.02H4.981c-.54 0-.981-.463-.981-1.03v-4.122c0-.566.44-1.029.98-1.029h6.738zM23.604 5c1.012 0 1.843.804 1.95 1.836l.011.225v3.09c0 .512-.357.938-.822 1.018l-.158.013H4.98c-.486 0-.892-.375-.968-.863L4 10.152V7.06c0-1.062.764-1.937 1.746-2.049L5.959 5h17.645z" clip-rule="evenodd"/>
</svg>
