<svg xmlns="http://www.w3.org/2000/svg" width="32" height="32" fill="currentColor" viewBox="0 0 32 32">
  <path fill-rule="evenodd" d="M16.496 23.466c4.928-.044 9.408-.8 10.704-2.666v3.555c0 2.454-6.048 4.445-10.704 4.445-4.778 0-11.696-1.741-11.696-4.445V20.8c1.293 1.867 6.744 2.622 11.696 2.666zM4.8 12.8c1.244 1.602 7.965 2.668 11.696 2.668 3.735 0 9.46-1.066 10.704-2.668v4.444c0 2.359-5.924 3.556-10.704 3.556C11.72 20.8 4.8 18.728 4.8 17.244V12.8zm10.702-9.6C21.675 3.2 27.2 4.813 27.2 7.04v1.92c0 2.354-4.53 3.839-10.704 3.839C10.301 12.8 4.8 11.315 4.8 8.96V7.041C4.8 4.817 9.33 3.2 15.502 3.2z" clip-rule="evenodd"/>
</svg>
