<svg xmlns="http://www.w3.org/2000/svg" width="32" height="32" viewBox="0 0 32 32">
  <path d="M29.819 25.087a.888.888 0 0 0-1.067-.622l-2.213.596a12.649 12.649 0 0 0 2.133-6 12.872 12.872 0 0 0-4.293-10.8.889.889 0 0 0-1.218.08.889.889 0 0 0 .08 1.253 11.066 11.066 0 0 1 3.698 9.298 10.835 10.835 0 0 1-1.778 5.102l-.222-2.23a.888.888 0 1 0-1.733.141l.444 5.725 5.556-1.476a.889.889 0 0 0 .613-1.067ZM3.881 16.91a.944.944 0 0 0 .391.142.89.89 0 0 0 .996-.756A10.853 10.853 0 0 1 16.663 6.92l-1.99 1.36a.89.89 0 0 0 .417 1.59c.2.02.4-.031.569-.141l4.738-3.254-4.054-4.07a.889.889 0 1 0-1.235 1.226l1.51 1.51a12.622 12.622 0 0 0-13.11 10.916.889.889 0 0 0 .373.854Zm15.485 11.422a10.667 10.667 0 0 1-4.303.453 10.934 10.934 0 0 1-8.506-5.6l2.213.827a.889.889 0 0 0 .613-1.636l-4.08-1.51-1.306-.472-.987 5.645a.889.889 0 0 0 .702 1.004h.151a.889.889 0 0 0 .89-.72l.373-2.133a12.711 12.711 0 0 0 9.777 6.346c1.687.168 3.39-.014 5.005-.533a.889.889 0 0 0-.534-1.689l-.008.018ZM21.313 14h-9.625a.699.699 0 0 0-.688.706v1.588a.7.7 0 0 0 .688.706h9.624a.699.699 0 0 0 .688-.706v-1.588a.699.699 0 0 0-.688-.706Zm0 5.351h-9.625a.699.699 0 0 0-.688.706v1.588a.7.7 0 0 0 .688.706h9.624a.699.699 0 0 0 .688-.706v-1.588a.699.699 0 0 0-.688-.706Z"/>
</svg>
