<svg xmlns="http://www.w3.org/2000/svg" width="32" height="32" fill="currentColor" viewBox="0 0 32 32">
  <path fill-rule="evenodd" d="M26.908 21.455c.601 0 1.092.49 1.092 1.091v3.274A2.18 2.18 0 0125.817 28H6.183A2.18 2.18 0 014 25.82v-3.274c0-.601.49-1.09 1.091-1.09h21.817zM8 23.04a1.6 1.6 0 100 3.2 1.6 1.6 0 000-3.2zm18.908-10.312c.541 0 .993.396 1.077.913l.015.176v4.366c0 .54-.397.99-.915 1.075l-.177.015H5.091c-.54 0-.992-.397-1.077-.913L4 18.183v-4.366c0-.54.397-.99.915-1.075l.176-.014h21.817zM8 14.4a1.6 1.6 0 100 3.2 1.6 1.6 0 000-3.2zM25.817 4c1.126 0 2.052.85 2.17 1.943L28 6.18v3.274c0 .54-.397.992-.915 1.076l-.177.015H5.091c-.54 0-.992-.397-1.077-.915L4 9.454V6.18c0-1.124.85-2.049 1.945-2.167L6.183 4h19.634zM8 5.76a1.6 1.6 0 100 3.2 1.6 1.6 0 000-3.2z" clip-rule="evenodd"/>
</svg>
