<svg xmlns="http://www.w3.org/2000/svg" width="32" height="32" viewBox="0 0 32 32">
  <path fill-rule="evenodd" d="M16.553 16.105a1 1 0 011.341.448l4.606 9.21 4.605-9.21a1 1 0 011.79.894l-5.5 11a1 1 0 01-1.79 0l-5.5-11a1 1 0 01.448-1.341z" clip-rule="evenodd"/>
  <path fill-rule="evenodd" d="M3 9.5V22c0 1.963 1.566 3.472 3.482 4.43C8.457 27.418 11.117 28 14 28c1.73 0 3.38-.21 4.85-.591l-.917-1.835A17.75 17.75 0 0114 26c-2.64 0-4.98-.537-6.624-1.359C5.673 23.79 5 22.798 5 22v-2.488c.45.347.953.653 1.482.918C8.457 21.418 11.117 22 14 22c.714 0 1.414-.036 2.094-.104l-.965-1.93c-.37.023-.746.034-1.129.034-2.64 0-4.98-.537-6.624-1.359C5.673 17.79 5 16.798 5 16v-3.337C6.99 14.077 10.28 15 14 15c.261 0 .52-.005.777-.016a2.998 2.998 0 013.775-.551c1.77-.456 3.306-1.157 4.448-1.988V16c0 .726-.557 1.613-1.942 2.408l.896 1.791c.37-.208.721-.437 1.046-.687v.78l2-4V9.5C25 6.462 20.075 4 14 4S3 6.462 3 9.5zm20 0c0 .353-.338 1.211-2.116 2.1-1.659.83-4.09 1.4-6.884 1.4-2.794 0-5.225-.57-6.884-1.4C5.338 10.711 5 9.853 5 9.5s.338-1.211 2.116-2.1C8.775 6.57 11.206 6 14 6c2.794 0 5.225.57 6.884 1.4C22.662 8.289 23 9.147 23 9.5z" clip-rule="evenodd"/>
  <path d="M25 20.764l-2.5 5-.863-1.726a7.402 7.402 0 01-1.013.603 9.962 9.962 0 01-.753.337l.897 1.794c.26-.108.51-.222.75-.342C23.434 25.472 25 23.964 25 22v-1.236zM18.167 21.57c.69-.148 1.347-.333 1.96-.551l-.902-1.805a14.5 14.5 0 01-1.985.502l.927 1.855z"/>
</svg>
