<svg xmlns="http://www.w3.org/2000/svg" width="32" height="32" viewBox="0 0 32 32">
  <path fill-rule="evenodd" d="M24.849 10c.114-.21.151-.383.151-.5 0-.353-.338-1.211-2.116-2.1C21.225 6.57 18.794 6 16 6c-2.794 0-5.225.57-6.884 1.4C7.338 8.289 7 9.147 7 9.5s.338 1.211 2.116 2.1c1.354.677 3.223 1.182 5.384 1.344v.556l.877 1.491c-3.463-.096-6.498-.994-8.377-2.328V16c0 .798.673 1.79 2.376 2.641C11.02 19.463 13.36 20 16 20c.778 0 1.53-.047 2.245-.133L19.3 21.66c-.945.221-1.998.34-3.3.34-2.883 0-5.543-.582-7.518-1.57A9.122 9.122 0 017 19.512V22c0 .798.673 1.79 2.376 2.641C11.02 25.463 13.36 26 16 26c1.247 0 2.428-.12 3.5-.333V27.7A20.228 20.228 0 0116 28c-2.883 0-5.543-.582-7.518-1.57C6.566 25.472 5 23.964 5 22V9.5C5 6.462 9.925 4 16 4s11 2.462 11 5.5v.5h-2.151zm1.352 9.589l-.701.911v4.048c.364-.733.5-1.586.5-2.548l.2-2.411z" clip-rule="evenodd"/>
  <path fill-rule="evenodd" d="M16 12a1 1 0 011-1h14a1 1 0 011 1v1.5a1 1 0 01-.293.707L26.5 21.414V27a1 1 0 01-.606.92l-3.5 1.5A1 1 0 0121 28.5v-6.16l-4.793-8.23A1 1 0 0116 13.5V12zm2 1.16V13h12v.086l-5.207 7.207A1 1 0 0024.5 21v5.34l-1.5.643V22a1 1 0 00-.207-.61L18 13.16z" clip-rule="evenodd"/>
</svg>
