<svg width="32" height="32" viewBox="0 0 32 32" xmlns="http://www.w3.org/2000/svg">
<path fill-rule="evenodd" clip-rule="evenodd" d="M6 10.0217C6 8.74522 7.04443 7.49281 8.95376 6.53815C10.8416 5.59423 13.4746 5 16.4022 5C19.3297 5 21.9627 5.59423 23.8506 6.53815C25.7599 7.49281 26.8043 8.74522 26.8043 10.0217V21.9783C26.8043 23.2548 25.7599 24.5072 23.8506 25.4618C21.9627 26.4058 19.3297 27 16.4022 27C13.4746 27 10.8416 26.4058 8.95376 25.4618C7.04443 24.5072 6 23.2548 6 21.9783V10.0217ZM16.4022 6.67391C13.8237 6.67391 11.4184 7.17693 9.70154 8.03537C9.03977 8.36657 8.54892 8.70915 8.21778 9.03147C7.90433 9.33658 7.67391 9.68251 7.67391 10.0217C7.67391 10.361 7.90433 10.7069 8.21778 11.012C8.54892 11.3343 9.03977 11.6769 9.70154 12.0081C11.4184 12.8665 13.8237 13.3696 16.4022 13.3696C18.9806 13.3696 21.386 12.8665 23.1029 12.008C23.7647 11.6769 24.2554 11.3343 24.5866 11.012C24.9 10.7069 25.1304 10.361 25.1304 10.0217C25.1304 9.68251 24.9 9.33658 24.5866 9.03147C24.2554 8.70914 23.7646 8.36657 23.1028 8.03537C21.3859 7.17693 18.9806 6.67391 16.4022 6.67391ZM25.1304 16V12.7608L24.5831 13.0991C22.6819 14.2745 19.7356 15.0435 16.4022 15.0435C13.0688 15.0435 10.1225 14.2733 8.22109 13.0991L7.67391 12.7611V16C7.67391 16.3392 7.90433 16.6852 8.21778 16.9903C8.54892 17.3126 9.03977 17.6552 9.70154 17.9864C11.4184 18.8448 13.8237 19.3478 16.4022 19.3478C18.9806 19.3478 21.386 18.8447 23.1029 17.9863C23.7647 17.6551 24.2554 17.3126 24.5866 16.9903C24.9 16.6852 25.1304 16.3392 25.1304 16ZM25.1304 21.9783V18.7391L24.5831 19.0774C22.6819 20.2527 19.7356 21.0217 16.4022 21.0217C13.0688 21.0217 10.1225 20.2516 8.22109 19.0773L7.67391 18.7394V21.9783C7.67391 22.3175 7.90433 22.6634 8.21778 22.9685C8.54892 23.2909 9.03977 23.6334 9.70154 23.9646C11.4184 24.8231 13.8237 25.3261 16.4022 25.3261C18.9806 25.3261 21.386 24.823 23.1029 23.9646C23.7647 23.6334 24.2554 23.2909 24.5866 22.9685C24.9 22.6634 25.1304 22.3175 25.1304 21.9783Z"/>
</svg>
