<svg xmlns="http://www.w3.org/2000/svg" width="32" height="33" viewBox="0 0 32 33">
  <g clip-path="url(#a)">
    <path d="M32 4.308a4 4 0 1 1-8 0 4 4 0 0 1 8 0Z" fill="#EF594F"/>
    <path fill-rule="evenodd" d="M21 4.308c-1.573-.656-3.271-1-5-1h-1v3.666a1 1 0 1 0 2 0v-1.62c1.564.142 3.076.618 4.436 1.39A6.985 6.985 0 0 1 21 4.309Zm4.563 6.564c.759.282 1.58.436 2.437.436a12.99 12.99 0 0 1 1 4.986v.027A13 13 0 1 1 6.808 7.115a1 1 0 0 1 1.614.286c.103.048.2.114.285.2l8 8a1 1 0 0 1-1.414 1.414L7.547 9.269a11 11 0 0 0-2.494 5.96l-.008.079h1.622a1 1 0 0 1 0 2H5.045A11 11 0 0 0 15 27.262v-1.62a1 1 0 1 1 2 0v1.62a11 11 0 0 0 9.954-9.954h-1.62a1 1 0 0 1 0-2h1.62a11.019 11.019 0 0 0-1.391-4.436Zm-.676-4.052c.207.194.407.394.6.6a4.03 4.03 0 0 1-.6-.6Z" clip-rule="evenodd"/>
  </g>
  <defs>
    <clipPath id="a">
      <path d="M0 .308h32v32H0z"/>
    </clipPath>
  </defs>
</svg>
