<svg xmlns="http://www.w3.org/2000/svg" width="32" height="32" viewBox="0 0 32 32">
  <path fill-rule="evenodd" d="M17 3.077C17 2.482 16.552 2 16 2s-1 .482-1 1.077v2.839c0 .595.448 1.077 1 1.077s1-.482 1-1.077v-2.84ZM9.123 4.702a.95.95 0 0 0-1.414-.004 1.136 1.136 0 0 0-.004 1.523l1.88 2.056A.95.95 0 0 0 11 8.28c.392-.42.393-1.101.004-1.523l-1.88-2.056Zm16.444 9.113L16.1 17.267l-9.49-3.46 9.467-3.47 9.489 3.478Zm-21.129-.36c.147-.371.487-.705 1.02-.9L15.229 9a2.52 2.52 0 0 1 1.7 0l9.672 3.546c.435.16.742.411.92.7l.01-.003 2.17 4.174c.902 1.82-.472 2.45-.989 2.687l-.034.016-.973.426v1.03c0 1.97.252 2.407-.704 2.924l-10.568 5.405a.898.898 0 0 1-.771.016L5.5 24.768c-1.16-.696-1.062-1.265-1.157-3.197v-1.025l-.977-.426c-.471-.186-1.93-.841-1.131-2.502l2.203-4.162Zm23.753 4.818-1.489-2.958-8.379 3.16 1.598 3.158 8.27-3.36ZM17.002 27.48v-7.49l1.202 2.21c.406 1.017 1.526 1.508 2.515 1.103l5.04-2.172v2.172l-8.757 4.177ZM6.3 21.13v2.173l8.756 4.182v-7.59l-1.328 2.506c-.406 1.016-1.525 1.507-2.514 1.102L6.3 21.13Zm7.297-2.656-8.075-3.169-1.44 2.945 7.849 3.383 1.666-3.159ZM24.243 4.7c.39.42.39 1.102 0 1.523l-1.895 2.058a.95.95 0 0 1-1.414 0 1.136 1.136 0 0 1 0-1.523L22.829 4.7a.95.95 0 0 1 1.414 0Z" clip-rule="evenodd"/>
</svg>
