<svg width="32" height="32" viewBox="0 0 32 32" fill="none" xmlns="http://www.w3.org/2000/svg">
<path d="M11.2488 16.3763L6.64027 11.7677C4.82598 13.7455 4.13846 15.7269 4.12652 15.7675L4 16.1447L4.12533 16.5219C4.15159 16.6019 6.88974 24.5 16.0006 24.5C17.1095 24.5 18.1193 24.3783 19.0467 24.1741L15.769 20.8965C14.5889 20.8386 13.4725 20.3438 12.637 19.5083C11.8015 18.6728 11.3067 17.5564 11.2488 16.3763ZM16.0006 7.7894C13.7864 7.7894 12.5123 8.29099 11 9L6.88135 4.85022C6.41582 4.38118 5.65775 4.37975 5.19046 4.84704C4.72563 5.31187 4.72423 6.06507 5.18733 6.53162L25.3379 26.8324C25.8063 27.3043 26.5689 27.3057 27.0391 26.8356C27.5027 26.372 27.5087 25.6222 27.0525 25.1512L24 22C27.1488 19.6689 27.858 16.572 27.8747 16.5219L28 16.1447L27.8747 15.7675C27.8484 15.6875 25.1115 7.7894 16.0006 7.7894ZM18.2756 16.7964C18.4988 15.9883 18.309 15.0788 17.6884 14.4569C17.0677 13.8351 16.157 13.6465 15.3489 13.8697L13.5489 12.0697C14.2865 11.6161 15.1347 11.3741 16.0006 11.3702C18.6337 11.3702 20.7751 13.5116 20.7751 16.1447C20.7715 17.0105 20.5291 17.8584 20.0744 18.5952L18.2756 16.7964Z" fill="#77889A"/>
</svg>
