<svg width="20" height="20" viewBox="0 0 20 20" fill="none" xmlns="http://www.w3.org/2000/svg">
<path fill-rule="evenodd" clip-rule="evenodd" d="M11.4816 1.25H5.41667H5.125C4.02043 1.25 3.125 2.14543 3.125 3.25V3.4375V16.5625V16.75C3.125 17.8546 4.02043 18.75 5.125 18.75H5.41667H14.5833H14.875C15.9796 18.75 16.875 17.8546 16.875 16.75V16.5625V6.39828C16.8749 6.10822 16.7542 5.83007 16.5393 5.625L12.2917 1.57047C12.0768 1.36534 11.7854 1.25006 11.4816 1.25ZM11.7188 2.89062V5.07812C11.7188 5.36821 11.8395 5.6464 12.0544 5.85152C12.2692 6.05664 12.5607 6.17188 12.8646 6.17188H15.1563L11.7188 2.89062ZM5.58447 11.4804C5.69191 11.583 5.83764 11.6406 5.98958 11.6406H14.0104C14.1624 11.6406 14.3081 11.583 14.4155 11.4804C14.523 11.3779 14.5833 11.2388 14.5833 11.0938C14.5833 10.9487 14.523 10.8096 14.4155 10.7071C14.3081 10.6045 14.1624 10.5469 14.0104 10.5469H5.98958C5.83764 10.5469 5.69191 10.6045 5.58447 10.7071C5.47703 10.8096 5.41667 10.9487 5.41667 11.0938C5.41667 11.2388 5.47703 11.3779 5.58447 11.4804ZM5.58447 14.7617C5.69191 14.8643 5.83764 14.9219 5.98958 14.9219H10.5729C10.7249 14.9219 10.8706 14.8643 10.978 14.7617C11.0855 14.6591 11.1458 14.52 11.1458 14.375C11.1458 14.23 11.0855 14.0909 10.978 13.9883C10.8706 13.8857 10.7249 13.8281 10.5729 13.8281H5.98958C5.83764 13.8281 5.69191 13.8857 5.58447 13.9883C5.47703 14.0909 5.41667 14.23 5.41667 14.375C5.41667 14.52 5.47703 14.6591 5.58447 14.7617Z" fill="#FF9F47"/>
</svg>
