<svg xmlns="http://www.w3.org/2000/svg" width="20" height="20" fill="none" viewBox="0 0 20 20">
  <path fill="#4DAEFF" fill-rule="evenodd" d="M11.482 1.25c.303 0 .595.115.81.32l4.247 4.055c.215.205.336.483.336.773V17.5c0 .69-.56 1.25-1.25 1.25H4.375c-.69 0-1.25-.56-1.25-1.25v-15c0-.69.56-1.25 1.25-1.25h7.107Zm.237 3.828V2.891l3.437 3.28h-2.291c-.304 0-.596-.114-.81-.32a1.07 1.07 0 0 1-.336-.773ZM8.906 13.27l4.102-3.75 1.367 1.25-5.469 5-3.281-3 1.367-1.25 1.914 1.75Z" clip-rule="evenodd"/>
</svg>
