<svg xmlns="http://www.w3.org/2000/svg" width="32" height="32" fill="currentColor" viewBox="0 0 32 32">
  <path fill-rule="evenodd" d="M26.979 6.03c-.002.019-.01.051-.05.1l-9.065 10.62-.274.32v7.846a.2.2 0 01-.083.163l-2 1.436a.182.182 0 01-.101.04.214.214 0 01-.107-.025.215.215 0 01-.083-.072.182.182 0 01-.026-.106V17.07l-.321-.375L5.852 6.13c-.042-.049-.049-.081-.051-.1a.217.217 0 01.021-.114.217.217 0 01.072-.09c.017-.01.046-.026.11-.026h20.772c.064 0 .093.016.11.027a.218.218 0 01.072.09c.02.044.024.084.02.112zM13.39 17.734L4.483 7.298C3.375 6 4.297 4 6.003 4h20.773c1.707 0 2.63 2 1.521 3.298L19.39 17.735v7.181a2 2 0 01-.834 1.625l-2 1.436c-1.323.95-3.166.004-3.166-1.625v-8.617z" clip-rule="evenodd"/>
</svg>
