<svg xmlns="http://www.w3.org/2000/svg" width="32" height="32" fill="currentColor" viewBox="0 0 32 32">
  <path fill-rule="evenodd" d="M16 2a14 14 0 110 28 14 14 0 010-28zm10.54 8.615a11.904 11.904 0 00-6.575-5.763 21.302 21.302 0 012.053 5.763h4.523zm1.255 6.451c.034-.354.051-.71.051-1.066a11.771 11.771 0 00-.459-3.23h-5.044c.069.712.119 1.43.119 2.153a21.774 21.774 0 01-.444 4.308h5.37c.204-.709.34-1.433.409-2.165h-.003zm-7.614 0l.012-.11a19.48 19.48 0 00.115-2.033c-.015-.72-.07-1.44-.164-2.154h-8.288c-.095.714-.15 1.434-.164 2.154.006 1.45.174 2.895.502 4.308h7.612c.166-.715.29-1.437.375-2.165zm-.414-6.45a19.33 19.33 0 00-2.703-6.398c-.353-.03-.706-.064-1.064-.064a7.795 7.795 0 00-.672.032l-.392.032-.013.022a19.321 19.321 0 00-2.69 6.375h7.534zm-9.785 0a21.45 21.45 0 012.08-5.775 11.904 11.904 0 00-6.603 5.774h4.523zm-5.37 2.153A11.803 11.803 0 004.155 16c.002 1.093.157 2.18.459 3.23h5.37a21.574 21.574 0 01-.445-4.307c0-.724.05-1.44.119-2.154H4.613zm5.932 8.616H5.461a11.878 11.878 0 008.226 6.23 21.588 21.588 0 01-3.143-6.23zM16 27.079a19.26 19.26 0 003.183-5.694h-6.366A19.262 19.262 0 0016 27.079zm5.456-5.694a21.59 21.59 0 01-3.143 6.23 11.881 11.881 0 008.226-6.23h-5.083z" clip-rule="evenodd"/>
</svg>
