<svg xmlns="http://www.w3.org/2000/svg" width="32" height="32" fill="currentColor" viewBox="0 0 32 32">
  <path fill-rule="evenodd" d="M3 9.628V5h4.628v1.644h16.744V5H29v4.628h-1.644v13.456H29v4.628h-4.628v-1.644H7.628v1.644H3v-4.628h1.644V9.628H3zM6.288 6.34H4.34v1.948h1.948V6.34zm21.372 0h-1.948v1.948h1.948V6.34zm-3.288 1.644H7.628v1.644H5.984v13.456h1.644v1.644h16.744v-1.644h1.643V9.628h-1.643V7.984zm-.304 5.236v9.56H12.864v-3.288H7.932v-9.56h11.204v3.288h4.932zm-6.272-1.948H9.272v6.88h8.524v-6.88zm4.932 3.288h-3.592v4.932h-4.932v1.948h8.524v-6.88zm-16.44 9.864H4.34v1.948h1.948v-1.948zm21.372 0h-1.948v1.948h1.948v-1.948z" clip-rule="evenodd"/>
</svg>
