<svg xmlns="http://www.w3.org/2000/svg" width="32" height="32" fill="currentColor" viewBox="0 0 32 32">
  <path fill-rule="evenodd" d="M13.621 4.01a1.52 1.52 0 011.343 1.678l-.583 5.246h3.875l.62-5.582a1.52 1.52 0 113.021.336l-.582 5.246h3.694a1.52 1.52 0 110 3.04h-4.032l-.433 3.893h4.465a1.52 1.52 0 110 3.04h-4.803l-.62 5.581a1.52 1.52 0 01-3.021-.336l.583-5.245h-3.875l-.62 5.581a1.52 1.52 0 01-3.021-.336l.582-5.245H6.52a1.52 1.52 0 110-3.04h4.032l.433-3.894H6.52a1.52 1.52 0 010-3.04h4.803l.62-5.58a1.52 1.52 0 011.678-1.344zm.422 9.963l-.432 3.894h3.874l.433-3.894h-3.875z" clip-rule="evenodd"/>
</svg>
