<svg xmlns="http://www.w3.org/2000/svg" width="32" height="32" viewBox="0 0 32 32">
  <path fill-rule="evenodd" d="M15.6 1.6c7.742 0 14 6.258 14 14s-6.258 14-14 14-14-6.258-14-14 6.258-14 14-14zm0 2.88C9.469 4.48 4.48 9.469 4.48 15.6c0 6.131 4.989 11.12 11.12 11.12 6.131 0 11.12-4.989 11.12-11.12 0-6.131-4.989-11.12-11.12-11.12zm5.027 4.12l1.972 1.973-5.025 5.027 5.025 5.027-1.972 1.973-5.028-5.027-5.025 5.027-1.975-1.973 5.028-5.027-5.028-5.027L10.574 8.6l5.025 5.027L20.627 8.6z" clip-rule="evenodd"/>
</svg>
