<svg width="32" height="32" viewBox="0 0 32 32" xmlns="http://www.w3.org/2000/svg">
<path fill-rule="evenodd" clip-rule="evenodd" d="M15.3955 25.1727C12.9621 27.6091 9.01971 27.6091 6.58331 25.1727C4.1498 22.7364 4.1498 18.7939 6.58331 16.3575L9.9726 12.9682C10.0318 12.909 10.1299 12.909 10.1891 12.9682L11.3498 14.1289C11.3783 14.1578 11.3943 14.1967 11.3943 14.2373C11.3943 14.2778 11.3781 14.3169 11.3497 14.3458L7.96063 17.7349C6.36222 19.3333 6.19184 22.0295 7.96063 23.7983C9.72653 25.5671 12.4257 25.3966 14.0241 23.7983L17.4134 20.4089C17.4726 20.3498 17.5707 20.3498 17.6298 20.4089L18.7877 21.5668C18.8162 21.5957 18.8322 21.6346 18.8322 21.6752C18.8322 21.7157 18.816 21.7548 18.7875 21.7837L15.3955 25.1727ZM19.8959 13.2928L13.2899 19.8959C13.2835 19.9023 13.2766 19.908 13.2692 19.9131C13.2436 19.9308 13.213 19.9406 13.1814 19.9406C13.1408 19.9406 13.1018 19.9244 13.0729 19.8959L12.6229 19.4448L11.921 18.7412C11.8619 18.682 11.8619 18.5839 11.921 18.5247L18.5247 11.921C18.5839 11.8619 18.682 11.8619 18.7412 11.921L19.896 13.0759C19.9246 13.1048 19.9406 13.1437 19.9406 13.1843C19.9406 13.2249 19.9245 13.264 19.8959 13.2928ZM25.1727 15.3985L21.7837 18.7875C21.7548 18.816 21.7157 18.8322 21.6752 18.8322C21.6346 18.8322 21.5955 18.816 21.5666 18.7875L20.406 17.6269C20.3469 17.5678 20.3469 17.4696 20.406 17.4105L23.7954 14.0211C25.3938 12.4228 25.5641 9.72655 23.7954 7.95776C22.0295 6.18888 19.3303 6.35934 17.7319 7.95771L14.3427 11.347C14.3138 11.3754 14.2749 11.3914 14.2344 11.3914C14.1938 11.3914 14.1547 11.3753 14.1259 11.3468L12.9711 10.192C12.9119 10.1328 12.9119 10.0347 12.9711 9.97552L16.3604 6.58616C18.7938 4.14989 22.7363 4.15266 25.1727 6.58623C27.6091 9.01966 27.6091 12.9621 25.1727 15.3985Z"/>
</svg>
