<svg xmlns="http://www.w3.org/2000/svg" width="32" height="32" viewBox="0 0 32 32">
  <path fill-rule="evenodd" d="m9.099 13.352-.381.08-.218.393-.23-.392-.312-.08c-2.708-.713-4.276-2.18-4.276-3.767 0-.894.437-2.055 1.346-2.802.91-.748 2.013-1.255 3.529-1.255s2.562.507 3.472 1.255c.909.747 1.346 1.908 1.346 2.802 0 1.586-1.625 3.054-4.276 3.766ZM15 9.586c0 2.68-2.398 4.899-5.525 5.285l-.553.9a.503.503 0 0 1-.844 0l-.553-.9C4.398 14.485 2 12.265 2 9.586 2 6.634 4.91 4 8.5 4S15 6.634 15 9.586Zm1.775.868a4.88 4.88 0 0 0 .075-2.673l1.15.923h10.286c.454 0 .89.184 1.212.512.322.329.502.774.502 1.238V26.25c0 .464-.18.91-.502 1.238a1.697 1.697 0 0 1-1.212.512H7.714a1.697 1.697 0 0 1-1.39-.727 1.996 1.996 0 0 1-.332-.574l-2.546-6A2 2 0 0 1 5.32 18H25a2 2 0 0 1 1.84 1.215l1.446 2.948v-11.71H16.775Zm-11.254.014c.449 0 .812-.395.812-.882s-.363-.882-.812-.882c-.449 0-.813.395-.813.882s.364.882.813.882Zm2.925 0c.449 0 .812-.395.812-.882s-.363-.882-.812-.882c-.449 0-.813.395-.813.882s.364.882.813.882Zm3.583-.882c0 .487-.364.882-.812.882-.45 0-.813-.395-.813-.882s.364-.882.813-.882c.448 0 .812.395.812.882ZM7.714 26H28l-3-6H5.32l2.389 5.984.001.016.002-.006.002.006Z" clip-rule="evenodd"/>
</svg>
