<svg xmlns="http://www.w3.org/2000/svg" width="73" height="72" viewBox="0 0 73 72">
  <path fill-rule="evenodd" d="M38.75 6.923c0-1.338-1.008-2.423-2.25-2.423-1.243 0-2.25 1.085-2.25 2.423v6.388c0 1.338 1.007 2.423 2.25 2.423 1.242 0 2.25-1.085 2.25-2.423V6.923ZM21.027 10.58c-.876-.95-2.3-.954-3.181-.01-.882.944-.886 2.478-.01 3.427l4.232 4.626c.876.949 2.3.953 3.182.01.881-.944.885-2.479.009-3.427l-4.232-4.626Zm36.999 20.504-21.3 7.767-21.352-7.785 21.3-7.81 21.352 7.828Zm-47.54-.808c.33-.837 1.096-1.588 2.296-2.029l21.981-7.997a5.668 5.668 0 0 1 3.823 0l21.763 7.979c.98.359 1.67.925 2.07 1.576l.022-.008 4.886 9.392c2.028 4.095-1.064 5.513-2.227 6.046l-.076.035-2.19.96v2.314c0 4.434.567 5.417-1.584 6.581l-23.779 12.16a2.021 2.021 0 0 1-1.734.037L12.875 55.73c-2.61-1.568-2.39-2.847-2.603-7.194V46.23l-2.2-.959c-1.058-.42-4.342-1.892-2.544-5.629l4.957-9.365Zm53.443 10.838L60.58 34.46l-18.853 7.107 3.595 7.107 18.607-7.56ZM38.755 61.83V44.978l2.704 4.974c.914 2.286 3.434 3.39 5.658 2.48l11.34-4.887v4.887L38.754 61.83Zm-24.08-14.289v4.89l19.702 9.41V44.766l-2.988 5.636c-.914 2.287-3.433 3.391-5.657 2.48l-11.057-5.341Zm16.418-5.974-18.17-7.13-3.239 6.625 17.66 7.612 3.75-7.107Zm23.953-30.992c.879.946.879 2.48 0 3.427l-4.263 4.63a2.138 2.138 0 0 1-3.182 0c-.879-.946-.879-2.48 0-3.426l4.263-4.631a2.138 2.138 0 0 1 3.182 0Z" clip-rule="evenodd"/>
</svg>
