<svg xmlns="http://www.w3.org/2000/svg" width="32" height="32" viewBox="0 0 32 32">
  <path fill-rule="evenodd" d="M16.587 28H7V4h9v6a2.006 2.006 0 0 0 2 2h6v6.5h2V10a.912.912 0 0 0-.3-.7l-7-7A.908.908 0 0 0 18 2H7a2.006 2.006 0 0 0-2 2v24a2.006 2.006 0 0 0 2 2h9.587v-2ZM18 4.4l5.6 5.6H18V4.4ZM10 17h11v-2H10v2Zm0 5h6.587v-2H10v2Z" clip-rule="evenodd"/>
  <path d="M21.886 25.571 19.057 28.4l1.415 1.415 2.828-2.829 2.828 2.829 1.415-1.415-2.829-2.828 2.829-2.828-1.415-1.415-2.828 2.829-2.828-2.829-1.415 1.415 2.829 2.828Z"/>
</svg>
