<svg xmlns="http://www.w3.org/2000/svg" width="73" height="72" viewBox="0 0 73 72">
  <g clip-path="url(#a)">
    <path d="M64.625 72a7.821 7.821 0 0 1-5.569-2.306l-9.288-9.288a14.616 14.616 0 0 1-16.533-20.151l1.323-3.015 9.351 9.35a2.302 2.302 0 0 0 3.18 0 2.248 2.248 0 0 0 .002-3.18l-9.351-9.354 3.015-1.323a14.617 14.617 0 0 1 20.15 16.535l9.289 9.288A7.876 7.876 0 0 1 64.625 72ZM51.058 55.33 62.24 66.512a3.454 3.454 0 0 0 4.77 0 3.37 3.37 0 0 0 0-4.772L55.83 50.557l.423-1.311a10.115 10.115 0 0 0-10.19-13.23l4.212 4.212a6.75 6.75 0 0 1 0 9.544 6.912 6.912 0 0 1-9.547 0l-4.212-4.212a10.119 10.119 0 0 0 13.232 10.195l1.31-.425Z"/>
    <path d="M56.75 11.25H50V9a4.513 4.513 0 0 0-4.5-4.5h-18A4.513 4.513 0 0 0 23 9v2.25h-6.75a4.513 4.513 0 0 0-4.5 4.5V63a4.513 4.513 0 0 0 4.5 4.5H32V63H16.25V15.75H23v6.75h27v-6.75h6.75V27h4.5V15.75a4.513 4.513 0 0 0-4.5-4.5ZM45.5 18h-18V9h18v9Z"/>
  </g>
  <defs>
    <clipPath id="a">
      <path d="M0 0h72v72H0z" transform="translate(.5)"/>
    </clipPath>
  </defs>
</svg>
