<svg xmlns="http://www.w3.org/2000/svg" width="72" height="72" viewBox="0 0 72 72">
  <path fill-rule="evenodd" d="M51.342 46.91c-.877 4.329-5.113 7.147-9.481 6.266-4.368-.882-7.176-5.12-6.3-9.45.877-4.328 5.114-7.146 9.482-6.265 4.368.881 7.175 5.12 6.299 9.449Zm-2.264 9.599a12.523 12.523 0 0 1-8.11 1.077c-6.794-1.37-11.19-7.974-9.817-14.75 1.372-6.774 7.991-11.156 14.785-9.786 6.794 1.37 11.19 7.974 9.817 14.75a12.441 12.441 0 0 1-3.109 6.045c.053.052.104.108.153.167l5.488 6.636a2.25 2.25 0 0 1-3.469 2.869l-5.488-6.636a2.26 2.26 0 0 1-.25-.372Z" clip-rule="evenodd"/>
  <path d="M20.004 17.412c0 1.433-1.094 2.596-2.647 2.596-1.553 0-2.453-1.163-2.453-2.596 0-1.434.9-2.597 2.453-2.597s2.647 1.163 2.647 2.597Zm5.228 2.596c1.553 0 2.584-1.163 2.584-2.596 0-1.434-1.03-2.597-2.584-2.597-1.553 0-2.537 1.163-2.537 2.597 0 1.433.984 2.596 2.537 2.596Z"/>
  <path fill-rule="evenodd" d="M11.25 25.615V54h16.875l4.5 4.5H9c-1.243 0-2.25-.93-2.25-2.077V11.077C6.75 9.93 7.757 9 9 9h54c1.243 0 2.25.93 2.25 2.077v45.346c0 1.147-.847 2.077-2.09 2.077h-1.702l-1.833-2.077L57.375 54h3.375V25.615h-49.5Zm0-4.153v-8.308h49.5v8.308h-49.5Z" clip-rule="evenodd"/>
  <path fill-rule="evenodd" d="M31.5 36H15.75v-4.5H31.5V36ZM27 45H15.75v-4.5H27V45Z" clip-rule="evenodd"/>
</svg>
