<svg xmlns="http://www.w3.org/2000/svg" width="32" height="32" viewBox="0 0 32 32">
  <path fill-rule="evenodd" d="M5 5v22h22V5H5ZM4 3a1 1 0 0 0-1 1v24a1 1 0 0 0 1 1h24a1 1 0 0 0 1-1V4a1 1 0 0 0-1-1H4Z" clip-rule="evenodd"/>
  <path fill-rule="evenodd" d="M27 11H5V9h22v2Z" clip-rule="evenodd"/>
  <path d="M13.707 14.793a1 1 0 0 0-1.414 1.414l2.293 2.293-2.293 2.293a1 1 0 0 0 1.414 1.414L16 19.914l2.293 2.293a1 1 0 0 0 1.414-1.414L17.414 18.5l2.293-2.293a1 1 0 0 0-1.414-1.414L16 17.086l-2.293-2.293ZM8.5 7.05a1.25 1.25 0 1 1-2.5 0 1.25 1.25 0 0 1 2.5 0Zm3.5 0a1.25 1.25 0 1 1-2.5 0 1.25 1.25 0 0 1 2.5 0Z"/>
</svg>
