<svg xmlns="http://www.w3.org/2000/svg" width="20" height="20" fill="none" viewBox="0 0 20 20">
  <path fill="#77889A" fill-rule="evenodd" d="M18.125 2.5a.625.625 0 0 0-.625-.625h-4.063a.625.625 0 1 0 0 1.25h2.602l-5.554 5.818a.625.625 0 0 0 .905.864l5.485-5.747v3.128a.625.625 0 1 0 1.25 0V2.5Zm-8.75.625A.625.625 0 0 0 8.75 2.5H6.875a.625.625 0 0 0-.625.625v10c0 .345.28.625.625.625h10c.345 0 .625-.28.625-.625V11.25a.625.625 0 1 0-1.25 0v1.25H7.5V3.75h1.25c.345 0 .625-.28.625-.625ZM5 7.5a.625.625 0 0 0-.625-.625H2.5a.625.625 0 0 0-.625.625v10c0 .345.28.625.625.625h10c.345 0 .625-.28.625-.625v-1.875a.625.625 0 1 0-1.25 0v1.25h-8.75v-8.75h1.25c.345 0 .625-.28.625-.625Z" clip-rule="evenodd"/>
</svg>
