<svg xmlns="http://www.w3.org/2000/svg" width="32" height="32" fill="currentColor" viewBox="0 0 32 32">
  <path fill-rule="evenodd" d="M4.192 7.315h24.116c.484 0 .877.393.877.877v14.616a.877.877 0 01-.877.877H4.192a.877.877 0 01-.877-.877V8.192c0-.484.393-.877.877-.877zM2 8.192C2 6.982 2.982 6 4.192 6h24.116c1.21 0 2.192.982 2.192 2.192v14.616c0 1.21-.982 2.192-2.192 2.192H4.192A2.192 2.192 0 012 22.808V8.192zm9.934 12.058h-1.51v-6.063c0-.724.018-1.297.052-1.721-.099.102-.22.216-.366.34-.141.124-.621.518-1.439 1.182l-.758-.957 2.762-2.171h1.259v9.39zm3.359-.803c0-.312.081-.552.244-.72.163-.166.398-.25.707-.25.312 0 .55.088.712.264.163.17.245.406.245.706 0 .304-.084.546-.25.726-.164.176-.4.263-.707.263-.309 0-.544-.087-.707-.263-.163-.176-.244-.418-.244-.726zm0-5.485c0-.646.317-.97.95-.97.322 0 .562.086.72.257.158.171.238.41.238.713 0 .304-.084.546-.25.726-.164.175-.4.263-.707.263-.309 0-.544-.088-.707-.263-.163-.176-.244-.418-.244-.726zm6.269 6.288h1.509v-9.39h-1.259l-2.762 2.17.758.958a80.679 80.679 0 001.439-1.182c.145-.124.268-.238.366-.34a22.54 22.54 0 00-.051 1.72v6.064z" clip-rule="evenodd"/>
</svg>
