<svg xmlns="http://www.w3.org/2000/svg" width="32" height="32" fill="currentColor" viewBox="0 0 32 32">
  <path fill-rule="evenodd" d="M25.948 25.8H6.45a3.15 3.15 0 01-3.142-2.912l-.008-.24V9.65a3.15 3.15 0 012.912-3.142l.24-.008H25.95a3.15 3.15 0 013.142 2.912l.008.24V22.65a3.15 3.15 0 01-2.912 3.142l-.24.008zM20.975 7.925v16.45h4.975a1.725 1.725 0 001.713-1.523l.012-.196V9.65a1.725 1.725 0 00-1.523-1.713l-.196-.012h-4.981zM6.45 24.375h13.1V7.925H6.45A1.725 1.725 0 004.725 9.65v13a1.725 1.725 0 001.725 1.725z" clip-rule="evenodd"/>
</svg>
