<svg xmlns="http://www.w3.org/2000/svg" width="32" height="32" fill="currentColor" viewBox="0 0 32 32">
  <g clip-path="url(#clip0)">
    <path fill-rule="evenodd" d="M6.963 20.578l5.386 5.386 10.818-10.818-5.385-5.386L6.963 20.578zM18.984 8.557l5.386 5.386 2.05-2.05-5.386-5.385-2.05 2.049zm4.876 8.104l.452 1.886a.096.096 0 01-.027.09l-3.904 3.904c-.332.332-.355.849-.05 1.154.305.304.822.282 1.154-.05l3.905-3.905c.458-.458.654-1.108.512-1.7l-.662-2.759 2.818-2.818c.369-.369.393-.943.055-1.281l-6.367-6.368c-.34-.338-.913-.314-1.282.055L5.254 20.08a.982.982 0 00-.293.696.986.986 0 00-.007.106l-.062 6.316a.816.816 0 00.838.839l6.316-.063a.981.981 0 00.108-.007.982.982 0 00.694-.293L23.86 16.66zM6.567 22.728L10.2 26.36l-3.67.037.037-3.67z" clip-rule="evenodd"/>
  </g>
  <defs>
    <clipPath id="clip0">
      <path d="M0 0h32v32H0z"/>
    </clipPath>
  </defs>
</svg>
