<svg xmlns="http://www.w3.org/2000/svg" width="32" height="32" fill="currentColor" viewBox="0 0 32 32">
  <path fill-rule="evenodd" d="M29.13 4.87c.3.3.469.707.47 1.13v14a1.606 1.606 0 01-1.601 1.6H10A1.606 1.606 0 018.4 20V6A1.606 1.606 0 0110 4.4h18c.423.001.83.17 1.13.47zM9.6 20.4h18.8V5.6H9.6v14.8z" clip-rule="evenodd"/>
  <path fill-rule="evenodd" d="M3.6 26.4h14.8v-2h1.2V26a1.606 1.606 0 01-1.601 1.6H4A1.606 1.606 0 012.4 26V16A1.606 1.606 0 014 14.4h1.6v1.2h-2v10.8z" clip-rule="evenodd"/>
</svg>
