<svg xmlns="http://www.w3.org/2000/svg" width="32" height="33" viewBox="0 0 32 33">
  <path fill-rule="evenodd" d="M15.35 2.24a1 1 0 0 1 1.3 0l13 11.11a1 1 0 0 1 .302 1.067l-4.79 14.89a1 1 0 0 1-.951.693H7.788a1 1 0 0 1-.951-.694l-4.79-14.889a1 1 0 0 1 .302-1.066l13-11.111ZM4.156 14.439 8.518 28h14.964l4.362-13.561L16 4.315 4.156 14.44Z" clip-rule="evenodd"/>
  <path fill-rule="evenodd" d="M15.384 9.212a1 1 0 0 1 1.232 0l7 5.474a1 1 0 0 1 .305 1.177L20.74 23.39a1 1 0 0 1-.92.611h-8.273a1 1 0 0 1-.948-.68l-2.545-7.526a1 1 0 0 1 .331-1.108l7-5.474Zm-5.21 6.613L12.263 22h6.892l2.626-6.21L16 11.27l-5.826 4.555Z" clip-rule="evenodd"/>
  <path fill-rule="evenodd" d="M2.033 13.744a1 1 0 0 1 1.223-.71L16 16.41l12.744-3.377a1 1 0 0 1 .512 1.934l-13 3.444a1 1 0 0 1-.512 0l-13-3.444a1 1 0 0 1-.71-1.223Z" clip-rule="evenodd"/>
  <path fill-rule="evenodd" d="M16 2a1 1 0 0 1 1 1v14.132l7.822 11.299a1 1 0 1 1-1.644 1.138L16 19.201 8.822 29.57a1 1 0 1 1-1.644-1.138L15 17.132V3a1 1 0 0 1 1-1Z" clip-rule="evenodd"/>
</svg>
