<svg xmlns="http://www.w3.org/2000/svg" width="32" height="33" viewBox="0 0 32 33">
  <path fill-rule="evenodd" d="M12.19 17.536a1.01 1.01 0 010 1.414l-3.919 3.977a.975.975 0 01-1.393 0l-4.181-4.242a1.01 1.01 0 010-1.415.975.975 0 011.393 0l3.484 3.536 3.223-3.27a.975.975 0 011.394 0z" clip-rule="evenodd"/>
  <path fill-rule="evenodd" d="M18.175 6c-5.442 0-9.854 4.477-9.854 10v5.5H6.35V16c0-6.627 5.294-12 11.825-12C24.705 4 30 9.373 30 16c0 6.628-5.294 12-11.825 12v-2c5.442 0 9.854-4.477 9.854-10S23.617 6 18.175 6z" clip-rule="evenodd"/>
</svg>
