<svg xmlns="http://www.w3.org/2000/svg" width="32" height="33" viewBox="0 0 32 33">
  <path fill-rule="evenodd" d="M5 5.164v22h22v-22H5zm-1-2a1 1 0 00-1 1v24a1 1 0 001 1h24a1 1 0 001-1v-24a1 1 0 00-1-1H4z" clip-rule="evenodd"/>
  <path fill-rule="evenodd" d="M18 7.664a1 1 0 011-1h5a1 1 0 011 1v5a1 1 0 11-2 0V10.08l-4.793 4.792a1 1 0 11-1.414-1.414l4.793-4.793H19a1 1 0 01-1-1zM14 24.164a1 1 0 01-1 1H8a1 1 0 01-1-1v-5a1 1 0 112 0v2.586l4.793-4.793a1 1 0 011.414 1.415l-4.793 4.792H13a1 1 0 011 1z" clip-rule="evenodd"/>
</svg>
