<svg width="24" height="24" viewBox="0 0 24 24" fill="none" xmlns="http://www.w3.org/2000/svg">
<path d="M20.5792 7.07926L16.9207 3.42076C16.752 3.25201 16.5449 3.06751 16.32 3.00001H3.71995C3.3217 3.00001 2.99995 3.32176 2.99995 3.72001V20.28C2.99995 20.6783 3.3217 21 3.71995 21H20.2799C20.6782 21 20.9999 20.6783 20.9999 20.28V8.09626C20.9999 7.71376 20.8492 7.34926 20.5792 7.07926ZM9.11995 4.62001H14.88V6.96001H9.11995V4.62001ZM19.3799 19.38H4.61995V4.62001H7.67995V7.68001C7.67995 8.07826 8.0017 8.40001 8.39995 8.40001H15.5999C15.9982 8.40001 16.32 8.07826 16.32 7.68001V5.11051L19.3799 8.17051V19.38ZM12 10.425C10.2112 10.425 8.75995 11.8763 8.75995 13.665C8.75995 15.4538 10.2112 16.905 12 16.905C13.7887 16.905 15.2399 15.4538 15.2399 13.665C15.2399 11.8763 13.7887 10.425 12 10.425ZM12 15.465C11.0055 15.465 10.2 14.6595 10.2 13.665C10.2 12.6705 11.0055 11.865 12 11.865C12.9944 11.865 13.7999 12.6705 13.7999 13.665C13.7999 14.6595 12.9944 15.465 12 15.465Z" fill="white"/>
<path fill-rule="evenodd" clip-rule="evenodd" d="M16.3365 2.88751L16.3523 2.89226C16.6074 2.96878 16.8321 3.17309 17.0002 3.34121L20.6587 6.99971C20.9499 7.29086 21.1124 7.684 21.1124 8.09626V20.28C21.1124 20.7404 20.7403 21.1125 20.2799 21.1125H3.71995C3.25957 21.1125 2.88745 20.7404 2.88745 20.28V3.72001C2.88745 3.25963 3.25957 2.88751 3.71995 2.88751H16.3365ZM16.32 3.00001C16.5449 3.06751 16.752 3.25201 16.9207 3.42076L20.5792 7.07926C20.8492 7.34926 20.9999 7.71376 20.9999 8.09626V20.28C20.9999 20.6783 20.6782 21 20.2799 21H3.71995C3.3217 21 2.99995 20.6783 2.99995 20.28V3.72001C2.99995 3.32176 3.3217 3.00001 3.71995 3.00001H16.32ZM14.7674 4.73251H9.23245V6.84751H14.7674V4.73251ZM4.73245 19.2675V4.73251H7.56745V7.68001C7.56745 8.14039 7.93957 8.51251 8.39995 8.51251H15.5999C16.0603 8.51251 16.4324 8.14039 16.4324 7.68001V5.38211L19.2675 8.21711V19.2675H4.73245ZM16.32 7.68001C16.32 8.07826 15.9982 8.40001 15.5999 8.40001H8.39995C8.0017 8.40001 7.67995 8.07826 7.67995 7.68001V4.62001H4.61995V19.38H19.3799V8.17051L16.32 5.11051V7.68001ZM8.64745 13.665C8.64745 11.8141 10.1491 10.3125 12 10.3125C13.8508 10.3125 15.3524 11.8141 15.3524 13.665C15.3524 15.5159 13.8508 17.0175 12 17.0175C10.1491 17.0175 8.64745 15.5159 8.64745 13.665ZM10.3124 13.665C10.3124 14.5974 11.0676 15.3525 12 15.3525C12.9323 15.3525 13.6875 14.5974 13.6875 13.665C13.6875 12.7326 12.9323 11.9775 12 11.9775C11.0676 11.9775 10.3124 12.7326 10.3124 13.665ZM9.11995 4.62001V6.96001H14.88V4.62001H9.11995ZM8.75995 13.665C8.75995 11.8763 10.2112 10.425 12 10.425C13.7887 10.425 15.2399 11.8763 15.2399 13.665C15.2399 15.4538 13.7887 16.905 12 16.905C10.2112 16.905 8.75995 15.4538 8.75995 13.665ZM10.2 13.665C10.2 14.6595 11.0055 15.465 12 15.465C12.9944 15.465 13.7999 14.6595 13.7999 13.665C13.7999 12.6705 12.9944 11.865 12 11.865C11.0055 11.865 10.2 12.6705 10.2 13.665Z" fill="white"/>
</svg>
