<svg xmlns="http://www.w3.org/2000/svg" width="32" height="32" viewBox="0 0 32 32">
  <path fill-rule="evenodd" d="M22.819 20.849a3.573 3.573 0 0 1-4.214 2.785 3.567 3.567 0 0 1-2.8-4.2 3.573 3.573 0 0 1 4.214-2.785 3.567 3.567 0 0 1 2.8 4.2Zm-1.007 4.266a5.566 5.566 0 0 1-3.604.479c-3.02-.61-4.973-3.544-4.363-6.555.61-3.012 3.552-4.959 6.571-4.35 3.02.61 4.973 3.544 4.363 6.555a5.53 5.53 0 0 1-1.382 2.687.795.795 0 0 1 .068.074l2.44 2.95a1 1 0 0 1-1.542 1.275l-2.44-2.95a1.003 1.003 0 0 1-.11-.165Z" clip-rule="evenodd"/>
  <path d="M8.89 7.738c0 .638-.485 1.154-1.176 1.154-.69 0-1.09-.516-1.09-1.154 0-.637.4-1.153 1.09-1.153.69 0 1.177.516 1.177 1.153Zm2.324 1.154c.69 0 1.149-.516 1.149-1.154 0-.637-.458-1.153-1.149-1.153-.69 0-1.127.516-1.127 1.153 0 .638.437 1.154 1.127 1.154Z"/>
  <path fill-rule="evenodd" d="M5 11.385V24h7.5l2 2H4c-.552 0-1-.413-1-.923V4.923C3 4.413 3.448 4 4 4h24c.552 0 1 .413 1 .923v20.154c0 .51-.376.923-.929.923h-.756l-.815-.923-1-1.077H27V11.385H5Zm0-1.847V5.846h22v3.692H5Z" clip-rule="evenodd"/>
  <path fill-rule="evenodd" d="M14 16H7v-2h7v2Zm-2 4H7v-2h5v2Z" clip-rule="evenodd"/>
</svg>
