<svg xmlns="http://www.w3.org/2000/svg" width="32" height="32" viewBox="0 0 32 32">
  <path d="M15 15h2.5v6H15v-6Zm0 7h2.5v2.5H15V22Z"/>
  <path fill-rule="evenodd" d="M18.37 2c.487 0 .953.185 1.297.513L26.463 9c.344.328.537.773.537 1.237V28a2 2 0 0 1-2 2H7a2 2 0 0 1-2-2V4a2 2 0 0 1 2-2h11.37Zm.38 6.125v-3.5l5.5 5.25h-3.667c-.486 0-.952-.184-1.296-.513a1.71 1.71 0 0 1-.537-1.237Zm-2.205 3.934C17.188 12.38 23.5 16 23.5 16l-.423 3.707c0 .283-1.523 5.992-6.637 7.274a.54.54 0 0 1-.273.003C10.668 25.71 9 20 9.002 19.729L8.5 16s6.867-3.626 7.567-3.948a.533.533 0 0 1 .448-.007l.03.014Z" clip-rule="evenodd"/>
</svg>
