<svg xmlns="http://www.w3.org/2000/svg" width="32" height="32" fill="currentColor" viewBox="0 0 32 32">
  <path fill-rule="evenodd" d="M26.04 16v.718l1.785 1.634a1.89 1.89 0 01.388 2.372l-2.154 3.779a1.89 1.89 0 01-1.635.945 1.89 1.89 0 01-.604-.095l-2.287-.775c-.4.264-.816.5-1.247.709l-.482 2.38a1.89 1.89 0 01-1.89 1.522h-4.458a1.89 1.89 0 01-1.89-1.521l-.482-2.381a10.714 10.714 0 01-1.237-.709l-2.296.775a1.89 1.89 0 01-.605.095 1.89 1.89 0 01-1.634-.945l-2.23-3.78a1.89 1.89 0 01.388-2.408l1.785-1.587v-1.446L3.47 13.648a1.89 1.89 0 01-.388-2.372l2.23-3.779a1.89 1.89 0 011.634-.944 1.89 1.89 0 01.605.056l2.249.813c.4-.264.816-.5 1.247-.709l.481-2.38a1.89 1.89 0 011.89-1.522h4.421a1.89 1.89 0 011.89 1.522l.482 2.38c.427.209.84.445 1.237.709l2.296-.775c.195-.064.4-.096.605-.094a1.89 1.89 0 011.634.944l2.23 3.78a1.89 1.89 0 01-.36 2.409l-1.813 1.587V16zm-4.932 6.462l3.24 1.096 2.23-3.779-2.57-2.333a8.408 8.408 0 000-2.958l2.57-2.267-2.23-3.779-3.25 1.058a8.843 8.843 0 00-2.55-1.483l-.67-3.354h-4.46l-.67 3.392a8.37 8.37 0 00-2.561 1.483l-3.24-1.096-2.23 3.78 2.57 2.333a8.408 8.408 0 000 2.957l-2.57 2.267 2.23 3.779 3.25-1.058a8.843 8.843 0 002.55 1.483l.67 3.354h4.46l.67-3.392a8.37 8.37 0 002.561-1.483zm-8.61-1.749a5.668 5.668 0 003.15.956A5.611 5.611 0 0021.316 16a5.67 5.67 0 10-8.818 4.713zm1.69-8.228c.463-.186.96-.275 1.46-.264a3.694 3.694 0 013.779 3.78 3.695 3.695 0 01-3.78 3.778A3.693 3.693 0 0111.87 16a3.692 3.692 0 012.319-3.515z" clip-rule="evenodd"/>
</svg>
