<svg xmlns="http://www.w3.org/2000/svg" width="32" height="32" fill="currentColor" viewBox="0 0 32 32">
  <path fill-rule="evenodd" d="M5.5 10.5h21v-5h-21v5zm0 16h5v-11h-5v11zm21 0v-11h-11v11h11zM6 4.5h20A1.5 1.5 0 0127.5 6v4a1.5 1.5 0 01-1.5 1.5H6A1.5 1.5 0 014.5 10V6A1.5 1.5 0 016 4.5zm0 10h4a1.5 1.5 0 011.5 1.5v10a1.5 1.5 0 01-1.5 1.5H6A1.5 1.5 0 014.5 26V16A1.5 1.5 0 016 14.5zm10 0h10a1.5 1.5 0 011.5 1.5v10a1.5 1.5 0 01-1.5 1.5H16a1.5 1.5 0 01-1.5-1.5V16a1.5 1.5 0 011.5-1.5z" clip-rule="evenodd"/>
</svg>
