<svg xmlns="http://www.w3.org/2000/svg" width="32" height="32" fill="currentColor" viewBox="0 0 32 32">
  <path fill-rule="evenodd" d="M10.938 3.963H8.986v11.544c0 1.952.698 3.824 1.94 5.205 1.243 1.38 2.929 2.156 4.686 2.156 1.758 0 3.443-.776 4.686-2.156 1.243-1.38 1.94-3.253 1.94-5.205V3.963h-1.952v11.544c0 1.377-.492 2.698-1.369 3.671-.876.974-2.065 1.521-3.305 1.521-1.24 0-2.428-.547-3.305-1.52-.876-.974-1.369-2.295-1.369-3.672V3.963zM28 26.113H4v1.85h24v-1.85z" clip-rule="evenodd"/>
</svg>
