<svg xmlns="http://www.w3.org/2000/svg" width="32" height="32" fill="currentColor" viewBox="0 0 32 32">
  <path d="M23.654 19.342l.113.092 3.2 3.2a.8.8 0 01.09 1.02l-.09.112-3.2 3.2a.8.8 0 01-1.224-1.02l.09-.112L24.47 24H5.6a.8.8 0 01-.144-1.587L5.6 22.4H24.47l-1.835-1.834a.8.8 0 011.02-1.224zM10.4 4.8a.8.8 0 01.749.518l4.8 12.8a.8.8 0 01-1.498.564L12.847 14.4H7.955L6.35 18.682a.8.8 0 01-1.498-.564l4.8-12.8a.8.8 0 01.75-.518zm13.254 1.742l.113.092 3.2 3.2a.8.8 0 01.09 1.02l-.09.112-3.2 3.2a.8.8 0 01-1.224-1.02l.09-.112L24.47 11.2H16.8a.8.8 0 01-.144-1.587L16.8 9.6h7.669l-1.835-1.834a.8.8 0 011.02-1.224zM10.4 7.878L8.555 12.8h3.691L10.4 7.878z"/>
</svg>
