<svg xmlns="http://www.w3.org/2000/svg" width="32" height="32" fill="currentColor" viewBox="0 0 32 32">
  <path d="M8.8 4.8a.8.8 0 01.8.8V24.47l1.834-1.835a.8.8 0 111.133 1.132l-3.2 3.2a.8.8 0 01-.457.226l-.115.008a.798.798 0 01-.56-.234l-3.2-3.2a.8.8 0 111.131-1.132L8 24.469V5.6a.8.8 0 01.8-.8zm12.8 14.4a.8.8 0 01.8.8v4.469l1.834-1.835a.8.8 0 111.132 1.132l-3.2 3.2a.799.799 0 01-1.132 0l-3.2-3.2a.8.8 0 111.133-1.132l1.833 1.835V20a.8.8 0 01.8-.8zm0-14.4a.8.8 0 01.749.518l4.8 12.8a.8.8 0 01-1.498.564L24.045 14.4h-4.89l-1.606 4.282a.8.8 0 01-1.498-.564l4.8-12.8a.8.8 0 01.75-.518zm0 3.078L19.755 12.8h3.69L21.6 7.878z"/>
</svg>
