<svg xmlns="http://www.w3.org/2000/svg" width="20" height="20" viewBox="0 0 20 20">
  <path d="m16.688 5.813-4.375-4.375a.567.567 0 0 0-.438-.188h-7.5c-.688 0-1.25.563-1.25 1.25v15c0 .688.563 1.25 1.25 1.25h11.25c.688 0 1.25-.563 1.25-1.25V6.25a.567.567 0 0 0-.188-.438ZM11.875 2.75l3.5 3.5h-3.5v-3.5Zm3.75 14.75H4.375v-15h6.25v3.75c0 .688.563 1.25 1.25 1.25h3.75v10Z"/>
  <path fill-rule="evenodd" d="M11.982 11.875H5.625v1.25h6.357l-1.616 1.616.884.884 3.125-3.125-3.125-3.125-.884.884 1.617 1.616Z" clip-rule="evenodd"/>
</svg>
