<svg xmlns="http://www.w3.org/2000/svg" width="32" height="32" fill="currentColor" viewBox="0 0 32 32">
  <path stroke-width=".1" d="M17.616 19.997a.209.209 0 00-.294 0l-3.026 3.026c-1.401 1.401-3.766 1.55-5.313 0-1.55-1.55-1.4-3.912 0-5.313l3.026-3.026a.21.21 0 000-.294l-1.036-1.037a.209.209 0 00-.294 0L7.652 16.38a5.63 5.63 0 000 7.97 5.633 5.633 0 007.97 0l3.026-3.027a.209.209 0 000-.294l-1.032-1.031zm6.735-12.345a5.63 5.63 0 00-7.969 0l-3.029 3.027a.209.209 0 000 .294l1.034 1.034c.08.08.214.08.294 0l3.027-3.026c1.4-1.401 3.765-1.55 5.312 0 1.55 1.55 1.402 3.911 0 5.312l-3.026 3.027a.209.209 0 000 .294l1.037 1.036c.08.081.213.081.294 0l3.026-3.026a5.638 5.638 0 000-7.972z"/>
  <path fill-rule="evenodd" d="M23.724 25.063L6.76 8.1l1.262-1.263 16.965 16.965-1.263 1.262z" clip-rule="evenodd"/>
</svg>
