<svg xmlns="http://www.w3.org/2000/svg" width="32" height="32" viewBox="0 0 32 32">
  <path fill-rule="evenodd" d="M15.205 4.166a.562.562 0 01.03-.019h.001l.011-.007.013-.008m1.185.156a.11.11 0 00-.007-.006l.007.006zm-.096-.083l.024.018m-.047-.036a.593.593 0 00-.03-.021l.03.021zm-.446-.177a.555.555 0 00-.034-.005l.034.005zm-.388.025a.57.57 0 00-.027.007l.027-.007zm-.089.029a.55.55 0 00-.029.01l.03-.01zM9.857 17.068H3.965A1.666 1.666 0 002.3 18.732v7.857a1.666 1.666 0 001.665 1.665h23.57a1.666 1.666 0 001.665-1.665v-7.856a1.667 1.667 0 00-1.665-1.665h-5.892a.682.682 0 000 1.364h6.193v8.457H3.664v-8.457h6.193a.682.682 0 000-1.364zm-.482-6.675l5.886-5.887.838-.109.02.013.009.004.002.002h.002l.004.005.02.015.014.01.008.005.004.003a.68.68 0 01.04.038l.007.005.009.008 5.887 5.888a.682.682 0 11-.965.964L16.432 6.63V17.75a.682.682 0 01-1.364 0V6.63l-4.728 4.728a.683.683 0 01-.965-.964zm6.636-6.041l.088.045-.012-.007-.01-.006-.003-.002-.003-.001a.114.114 0 00-.008-.004l-.022-.01-.001-.001-.017-.008-.012-.006zm0 0l-.455-.024.024-.005h.002l.011-.004.024-.006h.005l.01-.002.016-.002.016-.003.011-.001.008-.002a.698.698 0 01.049-.002h.001a.403.403 0 00.034 0h.001c.016 0 .034.001.05.003h.007l.011.002.017.003.015.002.01.001.005.001.017.004.02.006.013.003.009.002.006.002h.004l.006.003.025.009h.001l.02.008.007.002zm-.75.154l.14-.109-.02.013-.009.004-.002.002h-.001l-.005.005-.02.015-.013.009-.009.006-.004.004a.707.707 0 00-.04.037l-.006.005-.01.009zm.254-.163l.023-.008-.023.008zm.023-.008l.013-.005a.108.108 0 00-.008.003c-.002 0-.003 0-.005.002zm-.066.025l.018-.008-.02.009h.002zm-.002 0l-.033.017.022-.01.002-.002.01-.004zm8.622 17.649a1.172 1.172 0 11-1.949 1.303 1.172 1.172 0 011.949-1.303z" clip-rule="evenodd"/>
</svg>
