<svg xmlns="http://www.w3.org/2000/svg" width="32" height="32" fill="currentColor" viewBox="0 0 32 32">
  <path fill-rule="evenodd" d="M5.23 9.344C5.23 5.252 8.488 2 12.592 2c4.104 0 7.363 3.252 7.363 7.344 0 4.091-3.26 7.343-7.363 7.343-4.776 0-8.695 3.85-8.789 8.593H2c.07-4.265 2.708-7.934 6.43-9.532l.295-.127-.267-.18A7.285 7.285 0 015.23 9.345zm7.363-5.546c-3.112 0-5.56 2.441-5.56 5.546 0 3.104 2.448 5.545 5.56 5.545 3.111 0 5.56-2.441 5.56-5.545 0-3.105-2.449-5.546-5.56-5.546zm8.898 14.394v-2.229h1.804v2.229l.146.024c.613.102 1.237.41 1.77.73l.117.07 1.588-1.585 1.26 1.257-1.58 1.577.056.113c.326.65.635 1.27.737 1.883l.025.146h2.235v1.799h-2.454l-.022.15c-.105.733-.312 1.344-.717 1.848l-.098.123 1.602 1.598-1.26 1.256-1.588-1.584-.117.07c-.533.32-1.156.628-1.77.73l-.146.024v2.229h-1.803v-2.229l-.147-.024c-.613-.102-1.236-.41-1.77-.73l-.116-.07-1.589 1.584-1.26-1.256 1.581-1.576-.056-.114c-.327-.65-.636-1.27-.738-1.883l-.025-.146h-2.234v-1.799h2.453l.022-.15c.105-.734.313-1.344.717-1.848l.098-.123-1.602-1.598 1.26-1.257 1.588 1.584.117-.07c.533-.319 1.156-.627 1.77-.729l.146-.024zm.794 1.717c-1.927 0-3.406 1.475-3.406 3.398s1.48 3.397 3.406 3.397c1.927 0 3.406-1.474 3.406-3.398 0-1.922-1.479-3.397-3.406-3.397zm-.32 2.574c.1-.048.21-.074.321-.076.212 0 .439.108.616.285s.285.403.285.614c0 .212-.108.438-.285.615s-.404.284-.616.285a.767.767 0 01-.32-.076h-.002c-.33-.154-.58-.501-.58-.822a.762.762 0 01.075-.32c.052-.11.123-.21.21-.295v-.001c.086-.086.187-.157.296-.21z" clip-rule="evenodd"/>
</svg>
