<svg xmlns="http://www.w3.org/2000/svg" width="32" height="32" fill="currentColor" viewBox="0 0 32 32">
  <path d="M2.667 4v8H6.6l2.667 8H8v8h8v-6.12l7.213-7.213h6.12v-8h-8v6.093L14.12 20h-2.04l-2.667-8h1.254V4h-8zm2.666 2.667H8v2.666H5.333V6.667zM24 9.333h2.667V12H24V9.333zm4.2 8c-.2 0-.373.067-.52.214l-1.347 1.36 2.76 2.76 1.36-1.347c.28-.28.28-.76 0-1.04l-1.733-1.733a.724.724 0 00-.52-.214zm-2.667 2.347l-8.2 8.2v2.787h2.787l8.187-8.214-2.774-2.773zm-14.866 2.987h2.666v2.666h-2.666v-2.666z"/>
</svg>
