<svg width="32" height="32" viewBox="0 0 32 32" xmlns="http://www.w3.org/2000/svg">
<path fill-rule="evenodd" clip-rule="evenodd" d="M24.5744 5.59089C23.7849 4.80141 22.3902 4.80584 21.6076 5.58738L21.6065 5.58848L9.90256 17.1806V22.1123L14.8161 22.0956L26.5183 10.5051C26.9154 10.1076 27.1338 9.58107 27.1338 9.01994C27.1338 8.4585 26.9159 7.93237 26.5183 7.53476L24.5744 5.59089ZM7.10074 5.63953C5.94246 5.63953 5 6.58198 5 7.74026V24.8993C5 26.0575 5.94246 27 7.10074 27H24.2597C25.418 27 26.3605 26.0575 26.3605 24.8993V15.1217L24.6103 16.8719V25.2498H10.9886L10.9762 25.2521C10.9564 25.2558 10.9167 25.2621 10.8745 25.2621C10.8279 25.2621 10.7845 25.2559 10.7653 25.2531L10.7592 25.2522L10.7512 25.2498H6.75019V7.38971H15.3475L17.0977 5.63953H7.10074ZM23.0784 11.4497L20.6386 9.01157L23.0899 6.58187L25.5342 9.01697L23.0784 11.4497ZM11.6527 20.3558V17.9104L19.3951 10.2413L21.8348 12.6809L14.0931 20.3481L11.6527 20.3558Z" />
</svg>
