<svg width="32" height="32" viewBox="0 0 32 32" xmlns="http://www.w3.org/2000/svg">
<path d="M7.12984 6.00077C7.38961 5.99074 7.64363 6.07869 7.84155 6.24713L16.0667 14.4835L24.2919 6.25835C24.4898 6.08991 24.7438 6.00194 25.0036 6.01198C25.2644 6.02205 25.5119 6.13018 25.6964 6.31476C25.881 6.49934 25.9892 6.74678 25.9992 7.00762C26.0093 7.2674 25.9213 7.52142 25.7529 7.71934L17.5277 15.9445L25.7529 24.1696C25.9213 24.3676 26.0093 24.6216 25.9992 24.8814C25.9892 25.1422 25.881 25.3896 25.6964 25.5742C25.5119 25.7588 25.2644 25.8669 25.0036 25.877C24.7438 25.887 24.4898 25.7991 24.2919 25.6306L16.0668 17.4055L7.82788 25.6327L7.82362 25.6377C7.73071 25.7462 7.61637 25.8343 7.48779 25.8965C7.35921 25.9588 7.21915 25.9937 7.07642 25.9992C6.93368 26.0047 6.79135 25.9807 6.65835 25.9286C6.52535 25.8765 6.40456 25.7974 6.30356 25.6964C6.20256 25.5954 6.12352 25.4746 6.07142 25.3417C6.01931 25.2087 5.99526 25.0663 6.00077 24.9236C6.00629 24.7808 6.04124 24.6408 6.10345 24.5122C6.16566 24.3836 6.25394 24.2695 6.36243 24.1766L14.6057 15.9446L6.3806 7.70816C6.21214 7.51024 6.12417 7.2562 6.1342 6.99641C6.14428 6.73557 6.25241 6.48814 6.43699 6.30356C6.62157 6.11898 6.869 6.01085 7.12984 6.00077Z"/>
</svg>
