<svg xmlns="http://www.w3.org/2000/svg" width="32" height="32" fill="currentColor" viewBox="0 0 32 32">
  <path d="M17.129 16.116l5.253-5.165 1.262 1.262-5.262 5.165a2.666 2.666 0 11-1.253-1.262z"/>
  <path fill-rule="evenodd" d="M8.103 6.076A14.658 14.658 0 0116 3.778 14.657 14.657 0 0127.2 27.91l-.267.311H5.067l-.267-.31A14.658 14.658 0 018.103 6.075zm-4.947 13.4a12.827 12.827 0 002.764 6.968h20.16a12.827 12.827 0 002.765-6.968h-3.138v-1.778H28.8A12.863 12.863 0 0016.889 5.6v3.102H15.11V5.591c-2.82.191-5.5 1.31-7.618 3.182l2.16 2.187L8.4 12.213l-2.178-2.177a12.81 12.81 0 00-3.066 7.662h3.066v1.777H3.156z" clip-rule="evenodd"/>
</svg>
