<svg xmlns="http://www.w3.org/2000/svg" width="32" height="32" fill="currentColor" viewBox="0 0 32 32">
  <path fill-rule="evenodd" d="M2.657 2.657C3.013 2.301 3.497 2.1 4 2.1h24A1.902 1.902 0 0129.9 4v24a1.903 1.903 0 01-1.9 1.9H4A1.902 1.902 0 012.1 28V4c0-.504.2-.987.557-1.343zM12.1 3.9H3.9v7.2h8.2V3.9zm16 0H13.9v7.2h14.2V3.9zm0 9H3.9v15.2h24.202L28.1 12.9zm-17 5.002V16.1A4.9 4.9 0 116.101 21.1h1.8a3.1 3.1 0 103.199-3.198zM21.9 25.9h-1.8v-9.8h1.8v9.8zm2.2 0v-4.8h1.8v4.8h-1.8z" clip-rule="evenodd"/>
</svg>
