<svg xmlns="http://www.w3.org/2000/svg" width="32" height="32" viewBox="0 0 32 32">
  <path d="M25 9.5c0 .117-.037.29-.151.5H27v-.5C27 6.462 22.075 4 16 4S5 6.462 5 9.5V22c0 1.963 1.566 3.472 3.482 4.43C10.458 27.418 13.117 28 16 28c1.218 0 2.396-.104 3.5-.299v-2.034A18.025 18.025 0 0116 26c-2.64 0-4.98-.537-6.624-1.359C7.673 23.79 7 22.798 7 22v-2.488c.45.347.953.653 1.482.918C10.458 21.418 13.117 22 16 22c1.302 0 2.355-.119 3.3-.34l-1.055-1.793C17.53 19.953 16.778 20 16 20c-2.64 0-4.98-.537-6.624-1.359C7.673 17.79 7 16.798 7 16v-3.337c1.879 1.334 4.914 2.232 8.377 2.328L14.5 13.5v-.556c-2.161-.162-4.03-.667-5.384-1.344C7.338 10.711 7 9.853 7 9.5s.338-1.211 2.116-2.1C10.775 6.57 13.206 6 16 6c2.794 0 5.225.57 6.884 1.4C24.662 8.289 25 9.147 25 9.5z"/>
  <path fill-rule="evenodd" d="M17 11a1 1 0 00-1 1v1.5a1 1 0 00.207.61L21 22.34v6.16a1 1 0 001.394.92l3.5-1.5A1 1 0 0026.5 27v-5.586l5.207-7.207A1 1 0 0032 13.5V12a1 1 0 00-1-1H17zm1 2v.16l4.793 8.23A1 1 0 0123 22v4.983l1.5-.642V21a1 1 0 01.293-.707L30 13.086V13H18z" clip-rule="evenodd"/>
</svg>
