<svg xmlns="http://www.w3.org/2000/svg" width="32" height="32" fill="currentColor" viewBox="0 0 32 32">
  <path fill-rule="evenodd" d="M4.165 5.955A3.262 3.262 0 016.472 5h11.58a3.262 3.262 0 013.262 3.262v2.413a.85.85 0 11-1.698 0V8.262a1.563 1.563 0 00-1.564-1.563H6.472a1.563 1.563 0 00-1.564 1.563v14.476a1.564 1.564 0 001.564 1.564h11.58a1.563 1.563 0 001.564-1.564v-2.413a.85.85 0 111.698 0v2.413A3.262 3.262 0 0118.052 26H6.472a3.262 3.262 0 01-3.262-3.262V8.262c0-.865.343-1.695.955-2.307zM23.725 10.074a.85.85 0 011.2 0l4.826 4.825a.85.85 0 010 1.202l-4.825 4.825a.85.85 0 01-1.201-1.201L27.95 15.5l-4.225-4.225a.85.85 0 010-1.2z" clip-rule="evenodd"/>
  <path fill-rule="evenodd" d="M11.835 15.5c0-.469.38-.85.85-.85H29.15a.85.85 0 010 1.7H12.684a.85.85 0 01-.85-.85z" clip-rule="evenodd"/>
</svg>
