<svg xmlns="http://www.w3.org/2000/svg" width="32" height="32" viewBox="0 0 32 32">
  <path fill-rule="evenodd" d="M14.6 24.4h2.8v-2.8h-2.8v2.8zM16 2C8.272 2 2 8.272 2 16s6.272 14 14 14 14-6.272 14-14S23.728 2 16 2zm0 25.2C9.826 27.2 4.8 22.174 4.8 16 4.8 9.826 9.826 4.8 16 4.8c6.174 0 11.2 5.026 11.2 11.2 0 6.174-5.026 11.2-11.2 11.2zm0-19.6a5.598 5.598 0 00-5.6 5.6h2.8c0-1.54 1.26-2.8 2.8-2.8 1.54 0 2.8 1.26 2.8 2.8 0 2.8-4.2 2.45-4.2 7h2.8c0-3.15 4.2-3.5 4.2-7 0-3.094-2.506-5.6-5.6-5.6z" clip-rule="evenodd"/>
</svg>
