<svg xmlns="http://www.w3.org/2000/svg" width="32" height="32" viewBox="0 0 32 32">
  <path fill-rule="evenodd" d="M2.37 4.147a1.678 1.678 0 011.185-.491h24.89a1.678 1.678 0 011.677 1.677v21.334a1.677 1.677 0 01-1.678 1.677H3.555a1.678 1.678 0 01-1.677-1.677V5.333c0-.445.176-.871.491-1.186zm26.174 1.086H3.455v21.534h25.09V5.233zM6.947 7.406A2.567 2.567 0 118.91 12.15a2.567 2.567 0 01-1.964-4.743zm1.83 1.101a1.522 1.522 0 00-.849-.251h-.1v.012a1.522 1.522 0 00-1.413 1.51 1.522 1.522 0 102.361-1.27zm3.17 6.454l-.001-.002-.123.018a.789.789 0 00-1.113 0l-5.348 5.42v2.233l5.935-5.935 3.067 3.02-3.234 3.234h2.162l7.552-7.553 5.723 5.697v-2.225l-5.136-5.135a.789.789 0 00-1.112 0l-.165.024-.162.162.162-.02-4.705 4.705-3.627-3.627.126-.016zm8.207-1.063l.165-.165h1.112l-1.277.165z" clip-rule="evenodd"/>
</svg>
