<svg xmlns="http://www.w3.org/2000/svg" width="32" height="32" fill="currentColor" viewBox="0 0 32 32">
  <path fill-rule="evenodd" d="M16.616 6.139a6.531 6.531 0 019.244 0 6.54 6.54 0 010 9.247l-3.631 3.631a.024.024 0 01-.018.007.024.024 0 01-.017-.007l-1.243-1.243a.026.026 0 010-.036l3.63-3.63c1.764-1.764 1.953-4.74 0-6.694-1.95-1.953-4.93-1.763-6.693 0l-3.631 3.631a.024.024 0 01-.018.007.024.024 0 01-.017-.007l-1.24-1.24a.026.026 0 01-.007-.018c0-.006.002-.013.007-.018l3.634-3.63zm-4.821 12.727l7.076-7.073a.026.026 0 01.019-.008c.006 0 .013.003.018.008l1.233 1.236c.004.004.007.01.007.018a.024.024 0 01-.007.017l-7.075 7.075a.024.024 0 01-.017.007.024.024 0 01-.018-.007l-1.237-1.237a.026.026 0 01-.007-.018c0-.007.003-.013.008-.018zM6.14 16.61l3.63-3.63a.026.026 0 01.018-.008c.007 0 .014.003.019.008l1.243 1.243c.004.004.006.01.006.017a.024.024 0 01-.006.018l-3.632 3.631c-1.763 1.763-1.953 4.74 0 6.693 1.95 1.953 4.93 1.764 6.694 0l3.63-3.63a.026.026 0 01.037 0l1.236 1.237c.004.004.007.01.007.017a.024.024 0 01-.007.018l-3.631 3.63a6.534 6.534 0 01-9.244 0 6.531 6.531 0 010-9.244z" clip-rule="evenodd"/>
</svg>
