<svg xmlns="http://www.w3.org/2000/svg" width="32" height="32" fill="currentColor" viewBox="0 0 32 32">
  <path fill-rule="evenodd" d="M25.82 14.82a1.82 1.82 0 01-.398 1.996L14.817 27.421a1.833 1.833 0 01-2.589 0l-9.69-9.691a1.831 1.831 0 010-2.59l6.028-6.028L5.763 6.31a.916.916 0 011.295-1.294L9.86 7.818l3.284-3.283a1.834 1.834 0 012.589 0l9.69 9.691c.171.17.306.371.399.594zM13.523 26.127l10.606-10.606-9.69-9.691-3.284 3.283 2.675 2.675a3.205 3.205 0 11-1.295 1.294L9.86 10.408 3.83 16.436l9.69 9.691zm2.701-12.582a1.373 1.373 0 10-1.743 2.122 1.373 1.373 0 001.743-2.122zm10.923 4.792a.917.917 0 01.297.198C27.548 18.64 30 21.123 30 23.76a3.204 3.204 0 11-6.408 0c0-2.637 2.452-5.12 2.557-5.225a.915.915 0 01.997-.198zm-1.32 6.393a1.374 1.374 0 001.94 0c.258-.257.403-.606.403-.97 0-1.117-.742-2.354-1.372-3.176-.63.824-1.374 2.065-1.374 3.176 0 .364.145.713.402.97z" clip-rule="evenodd"/>
</svg>
