<svg width="18" height="18" viewBox="0 0 18 18" xmlns="http://www.w3.org/2000/svg">
<path fill-rule="evenodd" clip-rule="evenodd" d="M7.46333 2.67021C6.19211 2.67021 4.97295 3.1752 4.07406 4.07409C3.17517 4.97298 2.67018 6.19214 2.67018 7.46336C2.67018 8.0928 2.79416 8.71608 3.03504 9.29761C3.27592 9.87914 3.62898 10.4075 4.07406 10.8526C4.51915 11.2977 5.04754 11.6508 5.62907 11.8916C6.2106 12.1325 6.83388 12.2565 7.46333 12.2565C8.09277 12.2565 8.71605 12.1325 9.29758 11.8916C9.87911 11.6508 10.4075 11.2977 10.8526 10.8526C11.2977 10.4075 11.6507 9.87914 11.8916 9.29761C12.1325 8.71608 12.2565 8.0928 12.2565 7.46336C12.2565 6.19214 11.7515 4.97298 10.8526 4.07409C9.9537 3.1752 8.73455 2.67021 7.46333 2.67021ZM3.2466 3.24663C4.36494 2.12828 5.88175 1.5 7.46333 1.5C9.04491 1.5 10.5617 2.12828 11.6801 3.24663C12.7984 4.36497 13.4267 5.88178 13.4267 7.46336C13.4267 8.24648 13.2724 9.02193 12.9728 9.74543C12.748 10.2881 12.4447 10.7936 12.0734 11.246L16.3286 15.5012C16.5571 15.7297 16.5571 16.1001 16.3286 16.3286C16.1001 16.5571 15.7296 16.5571 15.5011 16.3286L11.246 12.0735C10.7935 12.4447 10.2881 12.748 9.7454 12.9728C9.0219 13.2725 8.24644 13.4267 7.46333 13.4267C6.68021 13.4267 5.90476 13.2725 5.18125 12.9728C4.45774 12.6731 3.80034 12.2338 3.2466 11.6801C2.69285 11.1263 2.25359 10.4689 1.9539 9.74543C1.65422 9.02193 1.49997 8.24648 1.49997 7.46336C1.49997 5.88178 2.12825 4.36497 3.2466 3.24663Z"/>
</svg>
