<svg xmlns="http://www.w3.org/2000/svg" width="32" height="32" fill="currentColor" viewBox="0 0 32 32">
  <path fill-rule="evenodd" d="M16.064 4.039a8.456 8.456 0 014.453.788 8.719 8.719 0 013.352 2.828L22.275 8.85c-.613-.83-1.31-1.533-2.25-2.025-1.004-.524-2.266-.799-3.968-.756a5.795 5.795 0 00-3.703 1.377l-.01.008-.008.009c-.34.367-.604.802-.774 1.277-.169.474-.242.978-.214 1.481 0 .713.122 1.3.368 1.792.247.494.613.879 1.08 1.193.924.62 2.268.977 3.924 1.38.529.125 1.056.26 1.58.406l.027.007h11.74v2.03H22.34l.27.332a5.936 5.936 0 011.319 3.922v.017a6.14 6.14 0 01-.372 2.456 6.008 6.008 0 01-1.303 2.081A8.752 8.752 0 0116.407 28h-.12a9.7 9.7 0 01-4.316-1.118 9.978 9.978 0 01-3.296-2.8l1.51-1.298c.707.93 1.6 1.696 2.621 2.244a7.91 7.91 0 003.51.942h.002a6.995 6.995 0 004.546-1.568l.01-.009.01-.01c.38-.406.672-.889.858-1.418.184-.527.26-1.088.22-1.646-.02-1.286-.392-2.19-1.082-2.858-.682-.66-1.655-1.072-2.828-1.42l-.029-.01H2V15h9.832l-.47-.364a5.102 5.102 0 01-1.529-1.947 5.252 5.252 0 01-.45-2.46v-.02a5.824 5.824 0 01.37-2.273 5.7 5.7 0 011.213-1.929 7.71 7.71 0 015.08-1.967h.009l.01-.001z" clip-rule="evenodd"/>
</svg>
