<svg xmlns="http://www.w3.org/2000/svg" width="20" height="20" viewBox="0 0 20 20">
  <path fill-rule="evenodd" d="M8.524 3.49a.906.906 0 00-.906.906v.906h4.613v-.906a.905.905 0 00-.905-.905H8.524zm4.698 1.812v-.906A1.896 1.896 0 0011.326 2.5H8.524a1.896 1.896 0 00-1.897 1.896v.906H3.62a.495.495 0 000 .99h.906v9.312A1.896 1.896 0 006.422 17.5h7.005a1.896 1.896 0 001.896-1.896V6.293h.906a.495.495 0 100-.991h-1.395a.58.58 0 00-.006 0h-1.606zm-7.705.99v9.312a.906.906 0 00.905.905h7.005a.905.905 0 00.905-.905V6.293H5.518zm3.007 2.512c.273 0 .495.222.495.496v4.202a.495.495 0 11-.99 0V9.3c0-.274.221-.496.495-.496zm2.802 0c.273 0 .495.222.495.496v4.202a.495.495 0 11-.99 0V9.3c0-.274.22-.496.495-.496z" clip-rule="evenodd"/>
</svg>
