<svg xmlns="http://www.w3.org/2000/svg" width="32" height="32" fill="currentColor" viewBox="0 0 32 32">
  <path fill-rule="evenodd" d="M13.81 2.667c-.796 0-1.56.358-2.122.996-.563.638-.879 1.503-.879 2.405v1.564H6.144c-.448 0-.81.412-.81.92 0 .507.362.918.81.918h1.38v16.462c0 .902.316 1.767.879 2.405.562.638 1.326.996 2.121.996h10.952c.796 0 1.559-.358 2.122-.996.562-.638.879-1.503.879-2.405V9.47h1.38c.447 0 .81-.411.81-.919 0-.507-.363-.918-.81-.918H21.19V6.067c0-.902-.316-1.767-.879-2.405-.563-.638-1.326-.996-2.122-.996h-4.38zm-.976 2.295c.259-.293.61-.458.976-.458h4.38c.366 0 .717.165.976.458.259.294.404.691.404 1.106v1.564h-7.14V6.068c0-.415.145-.812.404-1.106zm-3.69 20.97V9.47h13.711v16.462c0 .414-.145.812-.404 1.106-.258.293-.61.458-.975.458H10.524c-.365 0-.716-.165-.975-.458a1.676 1.676 0 01-.404-1.106zM13.81 13.84c-.448 0-.81.411-.81.918v7.45c0 .507.362.918.81.918.447 0 .81-.411.81-.919v-7.449c0-.507-.363-.918-.81-.918zm4.38 0c-.447 0-.81.411-.81.918v7.45c0 .507.363.918.81.918.448 0 .81-.411.81-.919v-7.449c0-.507-.362-.918-.81-.918z" clip-rule="evenodd"/>
</svg>
