<svg xmlns="http://www.w3.org/2000/svg" width="32" height="32" viewBox="0 0 32 32">
  <path fill-rule="evenodd" d="M1.15 9.714V5.15h4.564v1.621h11.65V5.15h4.565v4.564h-1.622v1.922h5.165v-1.622h4.564v4.565h-1.622v8.407h1.622v4.564H25.47v-1.621h-11.65v1.621H9.258v-4.564h1.622v-1.922H5.714v1.622H1.15v-4.564h1.621V9.714H1.15zm3.243-3.243H2.47v1.922h1.922V6.47zm16.214 0h-1.921v1.922h1.921V6.47zm-3.243 1.622H5.714v1.621H4.093v8.408h1.621v1.62h11.65v-1.62h1.622V9.714h-1.622V8.093zm11.35 3.243h-1.921v1.921h1.921v-1.921zm-3.242 1.621h-5.165v5.165h1.622v4.564h-4.565v-1.622H12.2v1.922h1.622v1.621h11.65v-1.621h1.62v-8.407h-1.62v-1.622zm-21.08 6.486h-1.92v1.921h1.92v-1.921zm16.215 0h-1.921v1.921h1.921v-1.921zM12.5 24.307h-1.921v1.922H12.5v-1.922zm16.214 0h-1.921v1.922h1.921v-1.922z" clip-rule="evenodd"/>
</svg>
