<svg xmlns="http://www.w3.org/2000/svg" width="32" height="32" viewBox="0 0 32 32">
  <path fill-rule="evenodd" d="M14.97 4.192c.842-1.586 2.216-1.593 3.062 0l11.627 21.923C30.5 27.702 29.732 29 27.933 29H5.069c-1.799 0-2.57-1.292-1.725-2.885L14.97 4.192zm.377 15.867a1.634 1.634 0 002.786-1.152v-8.145A1.628 1.628 0 0016.5 9.133a1.634 1.634 0 00-1.632 1.629v8.145c0 .432.172.846.478 1.152zm0 4.887a1.634 1.634 0 002.786-1.152 1.627 1.627 0 00-1.632-1.63 1.634 1.634 0 00-1.632 1.63c0 .432.172.846.478 1.152z" clip-rule="evenodd"/>
</svg>
