<svg xmlns="http://www.w3.org/2000/svg" width="32" height="32" fill="currentColor" viewBox="0 0 32 32">
  <path fill-rule="evenodd" d="M25.238 4.607c-.806-.811-2.239-.806-3.037-.004l-.002.002L9.412 17.347v5.223l5.172-.018L27.37 9.812c.407-.41.63-.952.63-1.53 0-.58-.223-1.12-.63-1.53l-2.132-2.145zm-15.06 21.731H5.651V6.33h9.516l1.614-1.625H6.188A2.16 2.16 0 004.037 6.87v18.928a2.16 2.16 0 002.15 2.164h18.814a2.16 2.16 0 002.151-2.165V15.383l-1.614 1.624v9.331H10.464a.79.79 0 01-.28.002h-.005zm13.528-15.213l-2.837-2.853 2.85-2.842 2.843 2.849-2.856 2.846zm-12.641 9.777v-2.861l8.603-8.575 2.838 2.855-8.604 8.572-2.837.01z" clip-rule="evenodd"/>
</svg>
